<mxfile host="Electron" modified="2023-05-01T20:28:24.650Z" agent="Mozilla/5.0 (X11; Linux x86_64) AppleWebKit/537.36 (KHTML, like Gecko) draw.io/21.2.1 Chrome/112.0.5615.87 Electron/24.1.2 Safari/537.36" etag="rG4nr-Jg8kNwITIR0jt2" version="21.2.1" type="device">
  <diagram name="Page-1" id="qQwEXMbdSLe5uv3-hXgm">
    <mxGraphModel dx="1839" dy="567" grid="1" gridSize="10" guides="1" tooltips="1" connect="1" arrows="1" fold="1" page="1" pageScale="1" pageWidth="850" pageHeight="1100" math="0" shadow="0">
      <root>
        <mxCell id="0" />
        <mxCell id="1" parent="0" />
        <mxCell id="OeVJVSpPUuf5zKflXX3D-1" value="Alice (Holder)" style="shape=umlActor;verticalLabelPosition=bottom;verticalAlign=top;html=1;outlineConnect=0;" parent="1" vertex="1">
          <mxGeometry x="80" y="120" width="50" height="90" as="geometry" />
        </mxCell>
        <mxCell id="OeVJVSpPUuf5zKflXX3D-2" value="&lt;b&gt;Phase 1: eligibility preparation - receiving credentials&lt;/b&gt;" style="text;html=1;strokeColor=none;fillColor=none;align=center;verticalAlign=middle;whiteSpace=wrap;rounded=0;" parent="1" vertex="1">
          <mxGeometry x="50" y="60" width="380" height="40" as="geometry" />
        </mxCell>
        <mxCell id="OeVJVSpPUuf5zKflXX3D-4" style="edgeStyle=orthogonalEdgeStyle;rounded=0;orthogonalLoop=1;jettySize=auto;html=1;strokeColor=default;" parent="1" target="OeVJVSpPUuf5zKflXX3D-1" edge="1">
          <mxGeometry relative="1" as="geometry">
            <mxPoint x="490" y="160" as="sourcePoint" />
          </mxGeometry>
        </mxCell>
        <mxCell id="OeVJVSpPUuf5zKflXX3D-5" value="Issues&lt;br&gt;&amp;nbsp;potentially &lt;br&gt;multiple copies" style="edgeLabel;html=1;align=center;verticalAlign=middle;resizable=0;points=[];labelBackgroundColor=none;" parent="OeVJVSpPUuf5zKflXX3D-4" vertex="1" connectable="0">
          <mxGeometry x="0.2468" y="-3" relative="1" as="geometry">
            <mxPoint x="180" y="18" as="offset" />
          </mxGeometry>
        </mxCell>
        <mxCell id="OeVJVSpPUuf5zKflXX3D-3" value="Acme University (Issuer)" style="shape=umlActor;verticalLabelPosition=bottom;verticalAlign=top;html=1;outlineConnect=0;" parent="1" vertex="1">
          <mxGeometry x="500" y="120" width="50" height="90" as="geometry" />
        </mxCell>
        <mxCell id="OeVJVSpPUuf5zKflXX3D-6" value="ACME Student AnonCred" style="swimlane;fontStyle=0;childLayout=stackLayout;horizontal=1;startSize=30;horizontalStack=0;resizeParent=1;resizeParentMax=0;resizeLast=0;collapsible=1;marginBottom=0;whiteSpace=wrap;html=1;fillColor=default;" parent="1" vertex="1">
          <mxGeometry x="260" y="100" width="150" height="240" as="geometry" />
        </mxCell>
        <mxCell id="OeVJVSpPUuf5zKflXX3D-10" value="Unique ID: 121A" style="text;strokeColor=none;fillColor=default;align=left;verticalAlign=middle;spacingLeft=4;spacingRight=4;overflow=hidden;points=[[0,0.5],[1,0.5]];portConstraint=eastwest;rotatable=0;whiteSpace=wrap;html=1;" parent="OeVJVSpPUuf5zKflXX3D-6" vertex="1">
          <mxGeometry y="30" width="150" height="30" as="geometry" />
        </mxCell>
        <mxCell id="OeVJVSpPUuf5zKflXX3D-7" value="&lt;div&gt;Name: Alice&lt;/div&gt;" style="text;strokeColor=none;fillColor=default;align=left;verticalAlign=middle;spacingLeft=4;spacingRight=4;overflow=hidden;points=[[0,0.5],[1,0.5]];portConstraint=eastwest;rotatable=0;whiteSpace=wrap;html=1;" parent="OeVJVSpPUuf5zKflXX3D-6" vertex="1">
          <mxGeometry y="60" width="150" height="30" as="geometry" />
        </mxCell>
        <mxCell id="OeVJVSpPUuf5zKflXX3D-8" value="Surname: Dupont" style="text;strokeColor=none;fillColor=default;align=left;verticalAlign=middle;spacingLeft=4;spacingRight=4;overflow=hidden;points=[[0,0.5],[1,0.5]];portConstraint=eastwest;rotatable=0;whiteSpace=wrap;html=1;" parent="OeVJVSpPUuf5zKflXX3D-6" vertex="1">
          <mxGeometry y="90" width="150" height="30" as="geometry" />
        </mxCell>
        <mxCell id="OeVJVSpPUuf5zKflXX3D-9" value="Addr: 3 rue charles, Paris" style="text;strokeColor=none;fillColor=default;align=left;verticalAlign=middle;spacingLeft=4;spacingRight=4;overflow=hidden;points=[[0,0.5],[1,0.5]];portConstraint=eastwest;rotatable=0;whiteSpace=wrap;html=1;" parent="OeVJVSpPUuf5zKflXX3D-6" vertex="1">
          <mxGeometry y="120" width="150" height="30" as="geometry" />
        </mxCell>
        <mxCell id="OeVJVSpPUuf5zKflXX3D-13" value="Age: 23" style="text;strokeColor=none;fillColor=default;align=left;verticalAlign=middle;spacingLeft=4;spacingRight=4;overflow=hidden;points=[[0,0.5],[1,0.5]];portConstraint=eastwest;rotatable=0;whiteSpace=wrap;html=1;" parent="OeVJVSpPUuf5zKflXX3D-6" vertex="1">
          <mxGeometry y="150" width="150" height="30" as="geometry" />
        </mxCell>
        <mxCell id="OeVJVSpPUuf5zKflXX3D-14" value="&lt;div&gt;Status: Student&lt;/div&gt;" style="text;strokeColor=none;fillColor=default;align=left;verticalAlign=middle;spacingLeft=4;spacingRight=4;overflow=hidden;points=[[0,0.5],[1,0.5]];portConstraint=eastwest;rotatable=0;whiteSpace=wrap;html=1;" parent="OeVJVSpPUuf5zKflXX3D-6" vertex="1">
          <mxGeometry y="180" width="150" height="30" as="geometry" />
        </mxCell>
        <mxCell id="OeVJVSpPUuf5zKflXX3D-17" value="&lt;div&gt;Signature: University&lt;/div&gt;" style="text;strokeColor=none;fillColor=default;align=left;verticalAlign=middle;spacingLeft=4;spacingRight=4;overflow=hidden;points=[[0,0.5],[1,0.5]];portConstraint=eastwest;rotatable=0;whiteSpace=wrap;html=1;" parent="OeVJVSpPUuf5zKflXX3D-6" vertex="1">
          <mxGeometry y="210" width="150" height="30" as="geometry" />
        </mxCell>
        <mxCell id="OeVJVSpPUuf5zKflXX3D-16" value="Internal Acme DB containing all students info" style="shape=cylinder3;whiteSpace=wrap;html=1;boundedLbl=1;backgroundOutline=1;size=15;" parent="1" vertex="1">
          <mxGeometry x="600" y="120" width="80" height="140" as="geometry" />
        </mxCell>
        <mxCell id="OeVJVSpPUuf5zKflXX3D-34" style="edgeStyle=orthogonalEdgeStyle;rounded=0;orthogonalLoop=1;jettySize=auto;html=1;entryX=0;entryY=0.5;entryDx=0;entryDy=0;" parent="1" source="OeVJVSpPUuf5zKflXX3D-18" target="OeVJVSpPUuf5zKflXX3D-33" edge="1">
          <mxGeometry relative="1" as="geometry">
            <mxPoint x="420" y="420" as="targetPoint" />
            <Array as="points">
              <mxPoint x="425" y="425" />
            </Array>
          </mxGeometry>
        </mxCell>
        <mxCell id="OeVJVSpPUuf5zKflXX3D-18" value="Alice (Holder)" style="shape=umlActor;verticalLabelPosition=bottom;verticalAlign=top;html=1;outlineConnect=0;" parent="1" vertex="1">
          <mxGeometry x="80" y="380" width="50" height="90" as="geometry" />
        </mxCell>
        <mxCell id="OeVJVSpPUuf5zKflXX3D-32" value="Have you ever been discriminated against?" style="ellipse;shape=cloud;whiteSpace=wrap;html=1;" parent="1" vertex="1">
          <mxGeometry x="375" y="470" width="180" height="130" as="geometry" />
        </mxCell>
        <mxCell id="OeVJVSpPUuf5zKflXX3D-33" value="Privency website" style="whiteSpace=wrap;html=1;aspect=fixed;" parent="1" vertex="1">
          <mxGeometry x="425" y="385" width="80" height="80" as="geometry" />
        </mxCell>
        <mxCell id="OeVJVSpPUuf5zKflXX3D-35" value="Logs in using regular OAuth2" style="text;html=1;align=center;verticalAlign=middle;resizable=0;points=[];autosize=1;strokeColor=none;fillColor=none;" parent="1" vertex="1">
          <mxGeometry x="155" y="400" width="180" height="30" as="geometry" />
        </mxCell>
        <mxCell id="OeVJVSpPUuf5zKflXX3D-36" value="REGISTER" style="rounded=0;whiteSpace=wrap;html=1;" parent="1" vertex="1">
          <mxGeometry x="422.5" y="560" width="85" height="40" as="geometry" />
        </mxCell>
        <mxCell id="OeVJVSpPUuf5zKflXX3D-161" value="" style="shape=partialRectangle;html=1;whiteSpace=wrap;connectable=0;strokeColor=inherit;overflow=hidden;fillColor=none;top=0;left=0;bottom=0;right=0;pointerEvents=1;fontSize=16;" parent="1" vertex="1">
          <mxGeometry x="643" y="598" width="93" height="55" as="geometry">
            <mxRectangle width="93" height="55" as="alternateBounds" />
          </mxGeometry>
        </mxCell>
        <mxCell id="OeVJVSpPUuf5zKflXX3D-162" value="Vote Proposal Table" style="shape=table;startSize=30;container=1;collapsible=0;childLayout=tableLayout;" parent="1" vertex="1">
          <mxGeometry x="550" y="490" width="240" height="110" as="geometry" />
        </mxCell>
        <mxCell id="OeVJVSpPUuf5zKflXX3D-163" value="" style="shape=tableRow;horizontal=0;startSize=0;swimlaneHead=0;swimlaneBody=0;strokeColor=inherit;top=0;left=0;bottom=0;right=0;collapsible=0;dropTarget=0;fillColor=none;points=[[0,0.5],[1,0.5]];portConstraint=eastwest;" parent="OeVJVSpPUuf5zKflXX3D-162" vertex="1">
          <mxGeometry y="30" width="240" height="40" as="geometry" />
        </mxCell>
        <mxCell id="OeVJVSpPUuf5zKflXX3D-164" value="proposal id" style="shape=partialRectangle;html=1;whiteSpace=wrap;connectable=0;strokeColor=inherit;overflow=hidden;fillColor=none;top=0;left=0;bottom=0;right=0;pointerEvents=1;" parent="OeVJVSpPUuf5zKflXX3D-163" vertex="1">
          <mxGeometry width="60" height="40" as="geometry">
            <mxRectangle width="60" height="40" as="alternateBounds" />
          </mxGeometry>
        </mxCell>
        <mxCell id="OeVJVSpPUuf5zKflXX3D-165" value="question" style="shape=partialRectangle;html=1;whiteSpace=wrap;connectable=0;strokeColor=inherit;overflow=hidden;fillColor=none;top=0;left=0;bottom=0;right=0;pointerEvents=1;" parent="OeVJVSpPUuf5zKflXX3D-163" vertex="1">
          <mxGeometry x="60" width="60" height="40" as="geometry">
            <mxRectangle width="60" height="40" as="alternateBounds" />
          </mxGeometry>
        </mxCell>
        <mxCell id="OeVJVSpPUuf5zKflXX3D-166" value="nonce iss" style="shape=partialRectangle;html=1;whiteSpace=wrap;connectable=0;strokeColor=inherit;overflow=hidden;fillColor=none;top=0;left=0;bottom=0;right=0;pointerEvents=1;" parent="OeVJVSpPUuf5zKflXX3D-163" vertex="1">
          <mxGeometry x="120" width="60" height="40" as="geometry">
            <mxRectangle width="60" height="40" as="alternateBounds" />
          </mxGeometry>
        </mxCell>
        <mxCell id="OeVJVSpPUuf5zKflXX3D-167" value="nonce vote" style="shape=partialRectangle;html=1;whiteSpace=wrap;connectable=0;strokeColor=inherit;overflow=hidden;fillColor=none;top=0;left=0;bottom=0;right=0;pointerEvents=1;" parent="OeVJVSpPUuf5zKflXX3D-163" vertex="1">
          <mxGeometry x="180" width="60" height="40" as="geometry">
            <mxRectangle width="60" height="40" as="alternateBounds" />
          </mxGeometry>
        </mxCell>
        <mxCell id="OeVJVSpPUuf5zKflXX3D-168" value="" style="shape=tableRow;horizontal=0;startSize=0;swimlaneHead=0;swimlaneBody=0;strokeColor=inherit;top=0;left=0;bottom=0;right=0;collapsible=0;dropTarget=0;fillColor=none;points=[[0,0.5],[1,0.5]];portConstraint=eastwest;" parent="OeVJVSpPUuf5zKflXX3D-162" vertex="1">
          <mxGeometry y="70" width="240" height="40" as="geometry" />
        </mxCell>
        <mxCell id="OeVJVSpPUuf5zKflXX3D-169" value="1" style="shape=partialRectangle;html=1;whiteSpace=wrap;connectable=0;strokeColor=inherit;overflow=hidden;fillColor=none;top=0;left=0;bottom=0;right=0;pointerEvents=1;" parent="OeVJVSpPUuf5zKflXX3D-168" vertex="1">
          <mxGeometry width="60" height="40" as="geometry">
            <mxRectangle width="60" height="40" as="alternateBounds" />
          </mxGeometry>
        </mxCell>
        <mxCell id="OeVJVSpPUuf5zKflXX3D-170" value="Have you ever..." style="shape=partialRectangle;html=1;whiteSpace=wrap;connectable=0;strokeColor=inherit;overflow=hidden;fillColor=none;top=0;left=0;bottom=0;right=0;pointerEvents=1;" parent="OeVJVSpPUuf5zKflXX3D-168" vertex="1">
          <mxGeometry x="60" width="60" height="40" as="geometry">
            <mxRectangle width="60" height="40" as="alternateBounds" />
          </mxGeometry>
        </mxCell>
        <mxCell id="OeVJVSpPUuf5zKflXX3D-171" value="5" style="shape=partialRectangle;html=1;whiteSpace=wrap;connectable=0;strokeColor=inherit;overflow=hidden;fillColor=none;top=0;left=0;bottom=0;right=0;pointerEvents=1;" parent="OeVJVSpPUuf5zKflXX3D-168" vertex="1">
          <mxGeometry x="120" width="60" height="40" as="geometry">
            <mxRectangle width="60" height="40" as="alternateBounds" />
          </mxGeometry>
        </mxCell>
        <mxCell id="OeVJVSpPUuf5zKflXX3D-172" value="3" style="shape=partialRectangle;html=1;whiteSpace=wrap;connectable=0;strokeColor=inherit;overflow=hidden;fillColor=none;top=0;left=0;bottom=0;right=0;pointerEvents=1;" parent="OeVJVSpPUuf5zKflXX3D-168" vertex="1">
          <mxGeometry x="180" width="60" height="40" as="geometry">
            <mxRectangle width="60" height="40" as="alternateBounds" />
          </mxGeometry>
        </mxCell>
        <mxCell id="OeVJVSpPUuf5zKflXX3D-173" value="Alice (Holder)" style="shape=umlActor;verticalLabelPosition=bottom;verticalAlign=top;html=1;outlineConnect=0;" parent="1" vertex="1">
          <mxGeometry x="80" y="520" width="50" height="90" as="geometry" />
        </mxCell>
        <mxCell id="OeVJVSpPUuf5zKflXX3D-176" value="&lt;div&gt;issues &lt;br&gt;&lt;/div&gt;&lt;div&gt;onClick&lt;/div&gt;" style="text;html=1;align=center;verticalAlign=middle;resizable=0;points=[];autosize=1;strokeColor=none;fillColor=none;" parent="1" vertex="1">
          <mxGeometry x="365" y="595" width="60" height="40" as="geometry" />
        </mxCell>
        <mxCell id="OeVJVSpPUuf5zKflXX3D-183" value="" style="edgeStyle=orthogonalEdgeStyle;rounded=0;orthogonalLoop=1;jettySize=auto;html=1;" parent="1" source="OeVJVSpPUuf5zKflXX3D-36" edge="1">
          <mxGeometry relative="1" as="geometry">
            <mxPoint x="423" y="580" as="sourcePoint" />
            <mxPoint x="140" y="580" as="targetPoint" />
            <Array as="points">
              <mxPoint x="190" y="580" />
              <mxPoint x="190" y="580" />
            </Array>
          </mxGeometry>
        </mxCell>
        <mxCell id="OeVJVSpPUuf5zKflXX3D-191" value="Proposal Info AnonCred" style="swimlane;fontStyle=0;childLayout=stackLayout;horizontal=1;startSize=30;horizontalStack=0;resizeParent=1;resizeParentMax=0;resizeLast=0;collapsible=1;marginBottom=0;whiteSpace=wrap;html=1;fillColor=default;" parent="1" vertex="1">
          <mxGeometry x="210" y="475" width="150" height="180" as="geometry" />
        </mxCell>
        <mxCell id="OeVJVSpPUuf5zKflXX3D-192" value="Proposal ID: 1" style="text;strokeColor=none;fillColor=default;align=left;verticalAlign=middle;spacingLeft=4;spacingRight=4;overflow=hidden;points=[[0,0.5],[1,0.5]];portConstraint=eastwest;rotatable=0;whiteSpace=wrap;html=1;" parent="OeVJVSpPUuf5zKflXX3D-191" vertex="1">
          <mxGeometry y="30" width="150" height="30" as="geometry" />
        </mxCell>
        <mxCell id="OeVJVSpPUuf5zKflXX3D-193" value="&lt;div&gt;Nonce ISS: 5&lt;/div&gt;" style="text;strokeColor=none;fillColor=default;align=left;verticalAlign=middle;spacingLeft=4;spacingRight=4;overflow=hidden;points=[[0,0.5],[1,0.5]];portConstraint=eastwest;rotatable=0;whiteSpace=wrap;html=1;" parent="OeVJVSpPUuf5zKflXX3D-191" vertex="1">
          <mxGeometry y="60" width="150" height="30" as="geometry" />
        </mxCell>
        <mxCell id="OeVJVSpPUuf5zKflXX3D-194" value="Nonce Vote: 3" style="text;strokeColor=none;fillColor=default;align=left;verticalAlign=middle;spacingLeft=4;spacingRight=4;overflow=hidden;points=[[0,0.5],[1,0.5]];portConstraint=eastwest;rotatable=0;whiteSpace=wrap;html=1;" parent="OeVJVSpPUuf5zKflXX3D-191" vertex="1">
          <mxGeometry y="90" width="150" height="30" as="geometry" />
        </mxCell>
        <mxCell id="OeVJVSpPUuf5zKflXX3D-200" value="Secret (blinded when signing): 48294" style="text;strokeColor=none;fillColor=default;align=left;verticalAlign=middle;spacingLeft=4;spacingRight=4;overflow=hidden;points=[[0,0.5],[1,0.5]];portConstraint=eastwest;rotatable=0;whiteSpace=wrap;html=1;" parent="OeVJVSpPUuf5zKflXX3D-191" vertex="1">
          <mxGeometry y="120" width="150" height="30" as="geometry" />
        </mxCell>
        <mxCell id="OeVJVSpPUuf5zKflXX3D-198" value="&lt;div&gt;Signature: Privency&lt;/div&gt;" style="text;strokeColor=none;fillColor=default;align=left;verticalAlign=middle;spacingLeft=4;spacingRight=4;overflow=hidden;points=[[0,0.5],[1,0.5]];portConstraint=eastwest;rotatable=0;whiteSpace=wrap;html=1;" parent="OeVJVSpPUuf5zKflXX3D-191" vertex="1">
          <mxGeometry y="150" width="150" height="30" as="geometry" />
        </mxCell>
        <mxCell id="OeVJVSpPUuf5zKflXX3D-204" style="edgeStyle=orthogonalEdgeStyle;rounded=0;orthogonalLoop=1;jettySize=auto;html=1;" parent="1" source="OeVJVSpPUuf5zKflXX3D-201" target="OeVJVSpPUuf5zKflXX3D-203" edge="1">
          <mxGeometry relative="1" as="geometry" />
        </mxCell>
        <mxCell id="OeVJVSpPUuf5zKflXX3D-201" value="Alice (Holder)" style="shape=umlActor;verticalLabelPosition=bottom;verticalAlign=top;html=1;outlineConnect=0;" parent="1" vertex="1">
          <mxGeometry x="80" y="700" width="50" height="90" as="geometry" />
        </mxCell>
        <mxCell id="OeVJVSpPUuf5zKflXX3D-203" value="Privency (Verifier)" style="shape=umlActor;verticalLabelPosition=bottom;verticalAlign=top;html=1;outlineConnect=0;" parent="1" vertex="1">
          <mxGeometry x="457.5" y="700" width="50" height="90" as="geometry" />
        </mxCell>
        <mxCell id="OeVJVSpPUuf5zKflXX3D-205" value="presents" style="text;html=1;align=center;verticalAlign=middle;resizable=0;points=[];autosize=1;strokeColor=none;fillColor=none;" parent="1" vertex="1">
          <mxGeometry x="122.5" y="748" width="70" height="30" as="geometry" />
        </mxCell>
        <mxCell id="OeVJVSpPUuf5zKflXX3D-206" value="Proposal Hash Presentation" style="swimlane;fontStyle=0;childLayout=stackLayout;horizontal=1;startSize=30;horizontalStack=0;resizeParent=1;resizeParentMax=0;resizeLast=0;collapsible=1;marginBottom=0;whiteSpace=wrap;html=1;fillColor=default;" parent="1" vertex="1">
          <mxGeometry x="192.5" y="673" width="200" height="210" as="geometry" />
        </mxCell>
        <mxCell id="OeVJVSpPUuf5zKflXX3D-207" value="Proposal ID: 1" style="text;strokeColor=none;fillColor=default;align=left;verticalAlign=middle;spacingLeft=4;spacingRight=4;overflow=hidden;points=[[0,0.5],[1,0.5]];portConstraint=eastwest;rotatable=0;whiteSpace=wrap;html=1;" parent="OeVJVSpPUuf5zKflXX3D-206" vertex="1">
          <mxGeometry y="30" width="200" height="30" as="geometry" />
        </mxCell>
        <mxCell id="OeVJVSpPUuf5zKflXX3D-211" value="&lt;div&gt;Hash_Secret (Secret + Nonce &lt;b&gt;ISS&lt;/b&gt;): hash(48294+5)&lt;/div&gt;" style="text;strokeColor=none;fillColor=default;align=left;verticalAlign=middle;spacingLeft=4;spacingRight=4;overflow=hidden;points=[[0,0.5],[1,0.5]];portConstraint=eastwest;rotatable=0;whiteSpace=wrap;html=1;" parent="OeVJVSpPUuf5zKflXX3D-206" vertex="1">
          <mxGeometry y="60" width="200" height="50" as="geometry" />
        </mxCell>
        <mxCell id="w4XMIHq6AyRLh-OTriUX-1" value="Hash_ID (ACME Unique ID + Nonce ISS): hash(121A+5)" style="text;strokeColor=none;fillColor=default;align=left;verticalAlign=middle;spacingLeft=4;spacingRight=4;overflow=hidden;points=[[0,0.5],[1,0.5]];portConstraint=eastwest;rotatable=0;whiteSpace=wrap;html=1;" parent="OeVJVSpPUuf5zKflXX3D-206" vertex="1">
          <mxGeometry y="110" width="200" height="50" as="geometry" />
        </mxCell>
        <mxCell id="OeVJVSpPUuf5zKflXX3D-212" value="&lt;div&gt;Proofs, non revocation&lt;br&gt;&lt;/div&gt;" style="text;strokeColor=none;fillColor=default;align=left;verticalAlign=middle;spacingLeft=4;spacingRight=4;overflow=hidden;points=[[0,0.5],[1,0.5]];portConstraint=eastwest;rotatable=0;whiteSpace=wrap;html=1;" parent="OeVJVSpPUuf5zKflXX3D-206" vertex="1">
          <mxGeometry y="160" width="200" height="50" as="geometry" />
        </mxCell>
        <mxCell id="OeVJVSpPUuf5zKflXX3D-240" value="Alice (Holder)" style="shape=umlActor;verticalLabelPosition=bottom;verticalAlign=top;html=1;outlineConnect=0;" parent="1" vertex="1">
          <mxGeometry x="65" y="990" width="50" height="90" as="geometry" />
        </mxCell>
        <mxCell id="OeVJVSpPUuf5zKflXX3D-260" style="edgeStyle=orthogonalEdgeStyle;rounded=0;orthogonalLoop=1;jettySize=auto;html=1;" parent="1" source="OeVJVSpPUuf5zKflXX3D-241" edge="1">
          <mxGeometry relative="1" as="geometry">
            <mxPoint x="130" y="1060" as="targetPoint" />
            <Array as="points">
              <mxPoint x="400" y="1060" />
              <mxPoint x="400" y="1060" />
            </Array>
          </mxGeometry>
        </mxCell>
        <mxCell id="OeVJVSpPUuf5zKflXX3D-241" value="Privency (Issuer)" style="shape=umlActor;verticalLabelPosition=bottom;verticalAlign=top;html=1;outlineConnect=0;" parent="1" vertex="1">
          <mxGeometry x="490" y="1020" width="50" height="90" as="geometry" />
        </mxCell>
        <mxCell id="OeVJVSpPUuf5zKflXX3D-247" value="AnonCred Table (standard revocation)" style="shape=table;startSize=30;container=1;collapsible=0;childLayout=tableLayout;" parent="1" vertex="1">
          <mxGeometry x="564.5" y="1007" width="250" height="150" as="geometry" />
        </mxCell>
        <mxCell id="OeVJVSpPUuf5zKflXX3D-248" value="" style="shape=tableRow;horizontal=0;startSize=0;swimlaneHead=0;swimlaneBody=0;strokeColor=inherit;top=0;left=0;bottom=0;right=0;collapsible=0;dropTarget=0;fillColor=none;points=[[0,0.5],[1,0.5]];portConstraint=eastwest;" parent="OeVJVSpPUuf5zKflXX3D-247" vertex="1">
          <mxGeometry y="30" width="250" height="40" as="geometry" />
        </mxCell>
        <mxCell id="OeVJVSpPUuf5zKflXX3D-249" value="user id" style="shape=partialRectangle;html=1;whiteSpace=wrap;connectable=0;strokeColor=inherit;overflow=hidden;fillColor=none;top=0;left=0;bottom=0;right=0;pointerEvents=1;" parent="OeVJVSpPUuf5zKflXX3D-248" vertex="1">
          <mxGeometry width="83" height="40" as="geometry">
            <mxRectangle width="83" height="40" as="alternateBounds" />
          </mxGeometry>
        </mxCell>
        <mxCell id="OeVJVSpPUuf5zKflXX3D-250" value="anoncred" style="shape=partialRectangle;html=1;whiteSpace=wrap;connectable=0;strokeColor=inherit;overflow=hidden;fillColor=none;top=0;left=0;bottom=0;right=0;pointerEvents=1;" parent="OeVJVSpPUuf5zKflXX3D-248" vertex="1">
          <mxGeometry x="83" width="84" height="40" as="geometry">
            <mxRectangle width="84" height="40" as="alternateBounds" />
          </mxGeometry>
        </mxCell>
        <mxCell id="OeVJVSpPUuf5zKflXX3D-251" value="revocation status" style="shape=partialRectangle;html=1;whiteSpace=wrap;connectable=0;strokeColor=inherit;overflow=hidden;fillColor=none;top=0;left=0;bottom=0;right=0;pointerEvents=1;" parent="OeVJVSpPUuf5zKflXX3D-248" vertex="1">
          <mxGeometry x="167" width="83" height="40" as="geometry">
            <mxRectangle width="83" height="40" as="alternateBounds" />
          </mxGeometry>
        </mxCell>
        <mxCell id="OeVJVSpPUuf5zKflXX3D-252" value="" style="shape=tableRow;horizontal=0;startSize=0;swimlaneHead=0;swimlaneBody=0;strokeColor=inherit;top=0;left=0;bottom=0;right=0;collapsible=0;dropTarget=0;fillColor=none;points=[[0,0.5],[1,0.5]];portConstraint=eastwest;" parent="OeVJVSpPUuf5zKflXX3D-247" vertex="1">
          <mxGeometry y="70" width="250" height="40" as="geometry" />
        </mxCell>
        <mxCell id="OeVJVSpPUuf5zKflXX3D-253" value="1" style="shape=partialRectangle;html=1;whiteSpace=wrap;connectable=0;strokeColor=inherit;overflow=hidden;fillColor=none;top=0;left=0;bottom=0;right=0;pointerEvents=1;" parent="OeVJVSpPUuf5zKflXX3D-252" vertex="1">
          <mxGeometry width="83" height="40" as="geometry">
            <mxRectangle width="83" height="40" as="alternateBounds" />
          </mxGeometry>
        </mxCell>
        <mxCell id="OeVJVSpPUuf5zKflXX3D-254" value="1" style="shape=partialRectangle;html=1;whiteSpace=wrap;connectable=0;strokeColor=inherit;overflow=hidden;fillColor=none;top=0;left=0;bottom=0;right=0;pointerEvents=1;" parent="OeVJVSpPUuf5zKflXX3D-252" vertex="1">
          <mxGeometry x="83" width="84" height="40" as="geometry">
            <mxRectangle width="84" height="40" as="alternateBounds" />
          </mxGeometry>
        </mxCell>
        <mxCell id="OeVJVSpPUuf5zKflXX3D-255" value="revoked" style="shape=partialRectangle;html=1;whiteSpace=wrap;connectable=0;strokeColor=inherit;overflow=hidden;fillColor=none;top=0;left=0;bottom=0;right=0;pointerEvents=1;" parent="OeVJVSpPUuf5zKflXX3D-252" vertex="1">
          <mxGeometry x="167" width="83" height="40" as="geometry">
            <mxRectangle width="83" height="40" as="alternateBounds" />
          </mxGeometry>
        </mxCell>
        <mxCell id="OeVJVSpPUuf5zKflXX3D-256" value="" style="shape=tableRow;horizontal=0;startSize=0;swimlaneHead=0;swimlaneBody=0;strokeColor=inherit;top=0;left=0;bottom=0;right=0;collapsible=0;dropTarget=0;fillColor=none;points=[[0,0.5],[1,0.5]];portConstraint=eastwest;" parent="OeVJVSpPUuf5zKflXX3D-247" vertex="1">
          <mxGeometry y="110" width="250" height="40" as="geometry" />
        </mxCell>
        <mxCell id="OeVJVSpPUuf5zKflXX3D-257" value="2" style="shape=partialRectangle;html=1;whiteSpace=wrap;connectable=0;strokeColor=inherit;overflow=hidden;fillColor=none;top=0;left=0;bottom=0;right=0;pointerEvents=1;" parent="OeVJVSpPUuf5zKflXX3D-256" vertex="1">
          <mxGeometry width="83" height="40" as="geometry">
            <mxRectangle width="83" height="40" as="alternateBounds" />
          </mxGeometry>
        </mxCell>
        <mxCell id="OeVJVSpPUuf5zKflXX3D-258" value="&lt;span style=&quot;color: rgb(0, 0, 0); font-family: Helvetica; font-size: 12px; font-style: normal; font-variant-ligatures: normal; font-variant-caps: normal; font-weight: 400; letter-spacing: normal; orphans: 2; text-align: center; text-indent: 0px; text-transform: none; widows: 2; word-spacing: 0px; -webkit-text-stroke-width: 0px; background-color: rgb(251, 251, 251); text-decoration-thickness: initial; text-decoration-style: initial; text-decoration-color: initial; float: none; display: inline !important;&quot;&gt;1&lt;/span&gt;" style="shape=partialRectangle;html=1;whiteSpace=wrap;connectable=0;strokeColor=inherit;overflow=hidden;fillColor=none;top=0;left=0;bottom=0;right=0;pointerEvents=1;" parent="OeVJVSpPUuf5zKflXX3D-256" vertex="1">
          <mxGeometry x="83" width="84" height="40" as="geometry">
            <mxRectangle width="84" height="40" as="alternateBounds" />
          </mxGeometry>
        </mxCell>
        <mxCell id="OeVJVSpPUuf5zKflXX3D-259" value="&lt;span style=&quot;color: rgb(0, 0, 0); font-family: Helvetica; font-size: 12px; font-style: normal; font-variant-ligatures: normal; font-variant-caps: normal; font-weight: 400; letter-spacing: normal; orphans: 2; text-align: center; text-indent: 0px; text-transform: none; widows: 2; word-spacing: 0px; -webkit-text-stroke-width: 0px; background-color: rgb(251, 251, 251); text-decoration-thickness: initial; text-decoration-style: initial; text-decoration-color: initial; float: none; display: inline !important;&quot;&gt;active&lt;/span&gt;" style="shape=partialRectangle;html=1;whiteSpace=wrap;connectable=0;strokeColor=inherit;overflow=hidden;fillColor=none;top=0;left=0;bottom=0;right=0;pointerEvents=1;" parent="OeVJVSpPUuf5zKflXX3D-256" vertex="1">
          <mxGeometry x="167" width="83" height="40" as="geometry">
            <mxRectangle width="83" height="40" as="alternateBounds" />
          </mxGeometry>
        </mxCell>
        <mxCell id="OeVJVSpPUuf5zKflXX3D-261" value="&lt;div&gt;issues if and only if:&lt;/div&gt;&lt;div&gt;- hash ID is&lt;br&gt;&lt;/div&gt;&lt;div&gt;not already associated &lt;br&gt;&lt;/div&gt;&lt;div&gt;with another user&lt;/div&gt;&lt;div&gt;- alice does not &lt;br&gt;&lt;/div&gt;&lt;div&gt;already have &lt;br&gt;&lt;/div&gt;&lt;div&gt;an active Voting AnonCred&lt;/div&gt;&lt;div&gt;- existing revoked&amp;nbsp;&lt;/div&gt;&lt;div&gt;AnonCred&amp;nbsp;&lt;span style=&quot;background-color: initial;&quot;&gt;associated&amp;nbsp;&lt;/span&gt;&lt;/div&gt;&lt;div&gt;&lt;span style=&quot;background-color: initial;&quot;&gt;with Alice&amp;nbsp;&lt;/span&gt;&lt;/div&gt;&lt;div&gt;are bound to&amp;nbsp;&lt;/div&gt;&lt;div&gt;the same Hash Secret&lt;/div&gt;" style="text;html=1;align=center;verticalAlign=middle;resizable=0;points=[];autosize=1;strokeColor=none;fillColor=none;" parent="1" vertex="1">
          <mxGeometry x="315" y="950" width="160" height="190" as="geometry" />
        </mxCell>
        <mxCell id="OeVJVSpPUuf5zKflXX3D-263" value="Proposal Vote AnonCred" style="swimlane;fontStyle=1;childLayout=stackLayout;horizontal=1;startSize=30;horizontalStack=0;resizeParent=1;resizeParentMax=0;resizeLast=0;collapsible=1;marginBottom=0;whiteSpace=wrap;html=1;fillColor=default;" parent="1" vertex="1">
          <mxGeometry x="155" y="900" width="150" height="310" as="geometry" />
        </mxCell>
        <mxCell id="RCCIjt6ZIgI7EhZnLY2O-198" value="AnonCred ID: 1" style="text;strokeColor=none;fillColor=default;align=left;verticalAlign=middle;spacingLeft=4;spacingRight=4;overflow=hidden;points=[[0,0.5],[1,0.5]];portConstraint=eastwest;rotatable=0;whiteSpace=wrap;html=1;" vertex="1" parent="OeVJVSpPUuf5zKflXX3D-263">
          <mxGeometry y="30" width="150" height="30" as="geometry" />
        </mxCell>
        <mxCell id="OeVJVSpPUuf5zKflXX3D-264" value="Proposal ID: 1" style="text;strokeColor=none;fillColor=default;align=left;verticalAlign=middle;spacingLeft=4;spacingRight=4;overflow=hidden;points=[[0,0.5],[1,0.5]];portConstraint=eastwest;rotatable=0;whiteSpace=wrap;html=1;" parent="OeVJVSpPUuf5zKflXX3D-263" vertex="1">
          <mxGeometry y="60" width="150" height="30" as="geometry" />
        </mxCell>
        <mxCell id="OeVJVSpPUuf5zKflXX3D-265" value="&lt;div&gt;Nonce ISS: 5&lt;/div&gt;" style="text;strokeColor=none;fillColor=default;align=left;verticalAlign=middle;spacingLeft=4;spacingRight=4;overflow=hidden;points=[[0,0.5],[1,0.5]];portConstraint=eastwest;rotatable=0;whiteSpace=wrap;html=1;" parent="OeVJVSpPUuf5zKflXX3D-263" vertex="1">
          <mxGeometry y="90" width="150" height="30" as="geometry" />
        </mxCell>
        <mxCell id="OeVJVSpPUuf5zKflXX3D-266" value="Nonce Vote: 3" style="text;strokeColor=none;fillColor=default;align=left;verticalAlign=middle;spacingLeft=4;spacingRight=4;overflow=hidden;points=[[0,0.5],[1,0.5]];portConstraint=eastwest;rotatable=0;whiteSpace=wrap;html=1;" parent="OeVJVSpPUuf5zKflXX3D-263" vertex="1">
          <mxGeometry y="120" width="150" height="30" as="geometry" />
        </mxCell>
        <mxCell id="OeVJVSpPUuf5zKflXX3D-267" value="Secret (blinded when signing): 48294" style="text;strokeColor=none;fillColor=default;align=left;verticalAlign=middle;spacingLeft=4;spacingRight=4;overflow=hidden;points=[[0,0.5],[1,0.5]];portConstraint=eastwest;rotatable=0;whiteSpace=wrap;html=1;" parent="OeVJVSpPUuf5zKflXX3D-263" vertex="1">
          <mxGeometry y="150" width="150" height="30" as="geometry" />
        </mxCell>
        <mxCell id="OeVJVSpPUuf5zKflXX3D-288" value="Hash_Secret (Secret + Nonce ISS): hash(48294+5)" style="text;strokeColor=none;fillColor=default;align=left;verticalAlign=middle;spacingLeft=4;spacingRight=4;overflow=hidden;points=[[0,0.5],[1,0.5]];portConstraint=eastwest;rotatable=0;whiteSpace=wrap;html=1;" parent="OeVJVSpPUuf5zKflXX3D-263" vertex="1">
          <mxGeometry y="180" width="150" height="50" as="geometry" />
        </mxCell>
        <mxCell id="w4XMIHq6AyRLh-OTriUX-30" value="Hash_ID (ACME Unique ID + Nonce ISS): hash(121A+5)" style="text;strokeColor=none;fillColor=default;align=left;verticalAlign=middle;spacingLeft=4;spacingRight=4;overflow=hidden;points=[[0,0.5],[1,0.5]];portConstraint=eastwest;rotatable=0;whiteSpace=wrap;html=1;" parent="OeVJVSpPUuf5zKflXX3D-263" vertex="1">
          <mxGeometry y="230" width="150" height="50" as="geometry" />
        </mxCell>
        <mxCell id="OeVJVSpPUuf5zKflXX3D-268" value="&lt;div&gt;Signature: Privency&lt;/div&gt;" style="text;strokeColor=none;fillColor=default;align=left;verticalAlign=middle;spacingLeft=4;spacingRight=4;overflow=hidden;points=[[0,0.5],[1,0.5]];portConstraint=eastwest;rotatable=0;whiteSpace=wrap;html=1;" parent="OeVJVSpPUuf5zKflXX3D-263" vertex="1">
          <mxGeometry y="280" width="150" height="30" as="geometry" />
        </mxCell>
        <mxCell id="OeVJVSpPUuf5zKflXX3D-269" value="x5" style="text;html=1;align=center;verticalAlign=middle;resizable=0;points=[];autosize=1;strokeColor=none;fillColor=none;" parent="1" vertex="1">
          <mxGeometry x="385" y="80" width="40" height="30" as="geometry" />
        </mxCell>
        <mxCell id="OeVJVSpPUuf5zKflXX3D-273" value="User Table" style="shape=table;startSize=30;container=1;collapsible=0;childLayout=tableLayout;" parent="1" vertex="1">
          <mxGeometry x="520" y="350" width="310" height="130" as="geometry" />
        </mxCell>
        <mxCell id="OeVJVSpPUuf5zKflXX3D-274" value="" style="shape=tableRow;horizontal=0;startSize=0;swimlaneHead=0;swimlaneBody=0;strokeColor=inherit;top=0;left=0;bottom=0;right=0;collapsible=0;dropTarget=0;fillColor=none;points=[[0,0.5],[1,0.5]];portConstraint=eastwest;" parent="OeVJVSpPUuf5zKflXX3D-273" vertex="1">
          <mxGeometry y="30" width="310" height="33" as="geometry" />
        </mxCell>
        <mxCell id="OeVJVSpPUuf5zKflXX3D-275" value="User Id" style="shape=partialRectangle;html=1;whiteSpace=wrap;connectable=0;strokeColor=inherit;overflow=hidden;fillColor=none;top=0;left=0;bottom=0;right=0;pointerEvents=1;" parent="OeVJVSpPUuf5zKflXX3D-274" vertex="1">
          <mxGeometry width="102" height="33" as="geometry">
            <mxRectangle width="102" height="33" as="alternateBounds" />
          </mxGeometry>
        </mxCell>
        <mxCell id="OeVJVSpPUuf5zKflXX3D-276" value="Handle" style="shape=partialRectangle;html=1;whiteSpace=wrap;connectable=0;strokeColor=inherit;overflow=hidden;fillColor=none;top=0;left=0;bottom=0;right=0;pointerEvents=1;" parent="OeVJVSpPUuf5zKflXX3D-274" vertex="1">
          <mxGeometry x="102" width="106" height="33" as="geometry">
            <mxRectangle width="106" height="33" as="alternateBounds" />
          </mxGeometry>
        </mxCell>
        <mxCell id="OeVJVSpPUuf5zKflXX3D-277" value="Email" style="shape=partialRectangle;html=1;whiteSpace=wrap;connectable=0;strokeColor=inherit;overflow=hidden;fillColor=none;top=0;left=0;bottom=0;right=0;pointerEvents=1;" parent="OeVJVSpPUuf5zKflXX3D-274" vertex="1">
          <mxGeometry x="208" width="102" height="33" as="geometry">
            <mxRectangle width="102" height="33" as="alternateBounds" />
          </mxGeometry>
        </mxCell>
        <mxCell id="OeVJVSpPUuf5zKflXX3D-278" value="" style="shape=tableRow;horizontal=0;startSize=0;swimlaneHead=0;swimlaneBody=0;strokeColor=inherit;top=0;left=0;bottom=0;right=0;collapsible=0;dropTarget=0;fillColor=none;points=[[0,0.5],[1,0.5]];portConstraint=eastwest;" parent="OeVJVSpPUuf5zKflXX3D-273" vertex="1">
          <mxGeometry y="63" width="310" height="34" as="geometry" />
        </mxCell>
        <mxCell id="OeVJVSpPUuf5zKflXX3D-279" value="1" style="shape=partialRectangle;html=1;whiteSpace=wrap;connectable=0;strokeColor=inherit;overflow=hidden;fillColor=none;top=0;left=0;bottom=0;right=0;pointerEvents=1;" parent="OeVJVSpPUuf5zKflXX3D-278" vertex="1">
          <mxGeometry width="102" height="34" as="geometry">
            <mxRectangle width="102" height="34" as="alternateBounds" />
          </mxGeometry>
        </mxCell>
        <mxCell id="OeVJVSpPUuf5zKflXX3D-280" value="bob" style="shape=partialRectangle;html=1;whiteSpace=wrap;connectable=0;strokeColor=inherit;overflow=hidden;fillColor=none;top=0;left=0;bottom=0;right=0;pointerEvents=1;" parent="OeVJVSpPUuf5zKflXX3D-278" vertex="1">
          <mxGeometry x="102" width="106" height="34" as="geometry">
            <mxRectangle width="106" height="34" as="alternateBounds" />
          </mxGeometry>
        </mxCell>
        <mxCell id="OeVJVSpPUuf5zKflXX3D-281" value="bob@acme.com" style="shape=partialRectangle;html=1;whiteSpace=wrap;connectable=0;strokeColor=inherit;overflow=hidden;fillColor=none;top=0;left=0;bottom=0;right=0;pointerEvents=1;" parent="OeVJVSpPUuf5zKflXX3D-278" vertex="1">
          <mxGeometry x="208" width="102" height="34" as="geometry">
            <mxRectangle width="102" height="34" as="alternateBounds" />
          </mxGeometry>
        </mxCell>
        <mxCell id="OeVJVSpPUuf5zKflXX3D-282" value="" style="shape=tableRow;horizontal=0;startSize=0;swimlaneHead=0;swimlaneBody=0;strokeColor=inherit;top=0;left=0;bottom=0;right=0;collapsible=0;dropTarget=0;fillColor=none;points=[[0,0.5],[1,0.5]];portConstraint=eastwest;" parent="OeVJVSpPUuf5zKflXX3D-273" vertex="1">
          <mxGeometry y="97" width="310" height="33" as="geometry" />
        </mxCell>
        <mxCell id="OeVJVSpPUuf5zKflXX3D-283" value="2" style="shape=partialRectangle;html=1;whiteSpace=wrap;connectable=0;strokeColor=inherit;overflow=hidden;fillColor=none;top=0;left=0;bottom=0;right=0;pointerEvents=1;fontStyle=1" parent="OeVJVSpPUuf5zKflXX3D-282" vertex="1">
          <mxGeometry width="102" height="33" as="geometry">
            <mxRectangle width="102" height="33" as="alternateBounds" />
          </mxGeometry>
        </mxCell>
        <mxCell id="OeVJVSpPUuf5zKflXX3D-284" value="alice" style="shape=partialRectangle;html=1;whiteSpace=wrap;connectable=0;strokeColor=inherit;overflow=hidden;fillColor=none;top=0;left=0;bottom=0;right=0;pointerEvents=1;fontStyle=1" parent="OeVJVSpPUuf5zKflXX3D-282" vertex="1">
          <mxGeometry x="102" width="106" height="33" as="geometry">
            <mxRectangle width="106" height="33" as="alternateBounds" />
          </mxGeometry>
        </mxCell>
        <mxCell id="OeVJVSpPUuf5zKflXX3D-285" value="alice@acme.com" style="shape=partialRectangle;html=1;whiteSpace=wrap;connectable=0;strokeColor=inherit;overflow=hidden;fillColor=none;top=0;left=0;bottom=0;right=0;pointerEvents=1;fontStyle=1" parent="OeVJVSpPUuf5zKflXX3D-282" vertex="1">
          <mxGeometry x="208" width="102" height="33" as="geometry">
            <mxRectangle width="102" height="33" as="alternateBounds" />
          </mxGeometry>
        </mxCell>
        <mxCell id="OeVJVSpPUuf5zKflXX3D-287" value="x1" style="text;html=1;align=center;verticalAlign=middle;resizable=0;points=[];autosize=1;strokeColor=none;fillColor=none;" parent="1" vertex="1">
          <mxGeometry x="295" y="890" width="40" height="30" as="geometry" />
        </mxCell>
        <mxCell id="OeVJVSpPUuf5zKflXX3D-290" value="&lt;div&gt;new&lt;/div&gt;&lt;div&gt;row&lt;br&gt;&lt;/div&gt;" style="text;html=1;align=center;verticalAlign=middle;resizable=0;points=[];autosize=1;strokeColor=none;fillColor=none;" parent="1" vertex="1">
          <mxGeometry x="820" y="783" width="50" height="40" as="geometry" />
        </mxCell>
        <mxCell id="OeVJVSpPUuf5zKflXX3D-297" value="&lt;b&gt;Phase 2: voting&lt;br&gt;from here on, Tor is recommended&lt;br&gt;&lt;/b&gt;" style="text;html=1;strokeColor=none;fillColor=none;align=center;verticalAlign=middle;whiteSpace=wrap;rounded=0;" parent="1" vertex="1">
          <mxGeometry x="-27.5" y="1250" width="200" height="30" as="geometry" />
        </mxCell>
        <mxCell id="w4XMIHq6AyRLh-OTriUX-5" value="Proposal Hash Table" style="shape=table;startSize=30;container=1;collapsible=0;childLayout=tableLayout;" parent="1" vertex="1">
          <mxGeometry x="580" y="673" width="240" height="150" as="geometry" />
        </mxCell>
        <mxCell id="w4XMIHq6AyRLh-OTriUX-6" value="" style="shape=tableRow;horizontal=0;startSize=0;swimlaneHead=0;swimlaneBody=0;strokeColor=inherit;top=0;left=0;bottom=0;right=0;collapsible=0;dropTarget=0;fillColor=none;points=[[0,0.5],[1,0.5]];portConstraint=eastwest;" parent="w4XMIHq6AyRLh-OTriUX-5" vertex="1">
          <mxGeometry y="30" width="240" height="40" as="geometry" />
        </mxCell>
        <mxCell id="w4XMIHq6AyRLh-OTriUX-7" value="proposal id" style="shape=partialRectangle;html=1;whiteSpace=wrap;connectable=0;strokeColor=inherit;overflow=hidden;fillColor=none;top=0;left=0;bottom=0;right=0;pointerEvents=1;" parent="w4XMIHq6AyRLh-OTriUX-6" vertex="1">
          <mxGeometry width="60" height="40" as="geometry">
            <mxRectangle width="60" height="40" as="alternateBounds" />
          </mxGeometry>
        </mxCell>
        <mxCell id="w4XMIHq6AyRLh-OTriUX-8" value="user id" style="shape=partialRectangle;html=1;whiteSpace=wrap;connectable=0;strokeColor=inherit;overflow=hidden;fillColor=none;top=0;left=0;bottom=0;right=0;pointerEvents=1;" parent="w4XMIHq6AyRLh-OTriUX-6" vertex="1">
          <mxGeometry x="60" width="60" height="40" as="geometry">
            <mxRectangle width="60" height="40" as="alternateBounds" />
          </mxGeometry>
        </mxCell>
        <mxCell id="w4XMIHq6AyRLh-OTriUX-9" value="hash secret" style="shape=partialRectangle;html=1;whiteSpace=wrap;connectable=0;strokeColor=inherit;overflow=hidden;fillColor=none;top=0;left=0;bottom=0;right=0;pointerEvents=1;" parent="w4XMIHq6AyRLh-OTriUX-6" vertex="1">
          <mxGeometry x="120" width="60" height="40" as="geometry">
            <mxRectangle width="60" height="40" as="alternateBounds" />
          </mxGeometry>
        </mxCell>
        <mxCell id="w4XMIHq6AyRLh-OTriUX-10" value="hash id" style="shape=partialRectangle;html=1;whiteSpace=wrap;connectable=0;strokeColor=inherit;overflow=hidden;fillColor=none;top=0;left=0;bottom=0;right=0;pointerEvents=1;" parent="w4XMIHq6AyRLh-OTriUX-6" vertex="1">
          <mxGeometry x="180" width="60" height="40" as="geometry">
            <mxRectangle width="60" height="40" as="alternateBounds" />
          </mxGeometry>
        </mxCell>
        <mxCell id="w4XMIHq6AyRLh-OTriUX-11" value="" style="shape=tableRow;horizontal=0;startSize=0;swimlaneHead=0;swimlaneBody=0;strokeColor=inherit;top=0;left=0;bottom=0;right=0;collapsible=0;dropTarget=0;fillColor=none;points=[[0,0.5],[1,0.5]];portConstraint=eastwest;" parent="w4XMIHq6AyRLh-OTriUX-5" vertex="1">
          <mxGeometry y="70" width="240" height="40" as="geometry" />
        </mxCell>
        <mxCell id="w4XMIHq6AyRLh-OTriUX-12" value="1" style="shape=partialRectangle;html=1;whiteSpace=wrap;connectable=0;strokeColor=inherit;overflow=hidden;fillColor=none;top=0;left=0;bottom=0;right=0;pointerEvents=1;" parent="w4XMIHq6AyRLh-OTriUX-11" vertex="1">
          <mxGeometry width="60" height="40" as="geometry">
            <mxRectangle width="60" height="40" as="alternateBounds" />
          </mxGeometry>
        </mxCell>
        <mxCell id="w4XMIHq6AyRLh-OTriUX-13" value="1" style="shape=partialRectangle;html=1;whiteSpace=wrap;connectable=0;strokeColor=inherit;overflow=hidden;fillColor=none;top=0;left=0;bottom=0;right=0;pointerEvents=1;" parent="w4XMIHq6AyRLh-OTriUX-11" vertex="1">
          <mxGeometry x="60" width="60" height="40" as="geometry">
            <mxRectangle width="60" height="40" as="alternateBounds" />
          </mxGeometry>
        </mxCell>
        <mxCell id="w4XMIHq6AyRLh-OTriUX-14" value="dslfj3" style="shape=partialRectangle;html=1;whiteSpace=wrap;connectable=0;strokeColor=inherit;overflow=hidden;fillColor=none;top=0;left=0;bottom=0;right=0;pointerEvents=1;" parent="w4XMIHq6AyRLh-OTriUX-11" vertex="1">
          <mxGeometry x="120" width="60" height="40" as="geometry">
            <mxRectangle width="60" height="40" as="alternateBounds" />
          </mxGeometry>
        </mxCell>
        <mxCell id="w4XMIHq6AyRLh-OTriUX-15" value="93idlkj" style="shape=partialRectangle;html=1;whiteSpace=wrap;connectable=0;strokeColor=inherit;overflow=hidden;fillColor=none;top=0;left=0;bottom=0;right=0;pointerEvents=1;" parent="w4XMIHq6AyRLh-OTriUX-11" vertex="1">
          <mxGeometry x="180" width="60" height="40" as="geometry">
            <mxRectangle width="60" height="40" as="alternateBounds" />
          </mxGeometry>
        </mxCell>
        <mxCell id="w4XMIHq6AyRLh-OTriUX-16" value="" style="shape=tableRow;horizontal=0;startSize=0;swimlaneHead=0;swimlaneBody=0;strokeColor=inherit;top=0;left=0;bottom=0;right=0;collapsible=0;dropTarget=0;fillColor=none;points=[[0,0.5],[1,0.5]];portConstraint=eastwest;" parent="w4XMIHq6AyRLh-OTriUX-5" vertex="1">
          <mxGeometry y="110" width="240" height="40" as="geometry" />
        </mxCell>
        <mxCell id="w4XMIHq6AyRLh-OTriUX-17" value="1" style="shape=partialRectangle;html=1;whiteSpace=wrap;connectable=0;strokeColor=inherit;overflow=hidden;fillColor=none;top=0;left=0;bottom=0;right=0;pointerEvents=1;fontStyle=1" parent="w4XMIHq6AyRLh-OTriUX-16" vertex="1">
          <mxGeometry width="60" height="40" as="geometry">
            <mxRectangle width="60" height="40" as="alternateBounds" />
          </mxGeometry>
        </mxCell>
        <mxCell id="w4XMIHq6AyRLh-OTriUX-18" value="2" style="shape=partialRectangle;html=1;whiteSpace=wrap;connectable=0;strokeColor=inherit;overflow=hidden;fillColor=none;top=0;left=0;bottom=0;right=0;pointerEvents=1;fontStyle=1" parent="w4XMIHq6AyRLh-OTriUX-16" vertex="1">
          <mxGeometry x="60" width="60" height="40" as="geometry">
            <mxRectangle width="60" height="40" as="alternateBounds" />
          </mxGeometry>
        </mxCell>
        <mxCell id="w4XMIHq6AyRLh-OTriUX-19" value="qzkdf9" style="shape=partialRectangle;html=1;whiteSpace=wrap;connectable=0;strokeColor=inherit;overflow=hidden;fillColor=none;top=0;left=0;bottom=0;right=0;pointerEvents=1;fontStyle=1" parent="w4XMIHq6AyRLh-OTriUX-16" vertex="1">
          <mxGeometry x="120" width="60" height="40" as="geometry">
            <mxRectangle width="60" height="40" as="alternateBounds" />
          </mxGeometry>
        </mxCell>
        <mxCell id="w4XMIHq6AyRLh-OTriUX-20" value="bskjdf98" style="shape=partialRectangle;html=1;whiteSpace=wrap;connectable=0;strokeColor=inherit;overflow=hidden;fillColor=none;top=0;left=0;bottom=0;right=0;pointerEvents=1;fontStyle=1" parent="w4XMIHq6AyRLh-OTriUX-16" vertex="1">
          <mxGeometry x="180" width="60" height="40" as="geometry">
            <mxRectangle width="60" height="40" as="alternateBounds" />
          </mxGeometry>
        </mxCell>
        <mxCell id="w4XMIHq6AyRLh-OTriUX-27" value="" style="endArrow=classic;html=1;rounded=0;entryX=0.863;entryY=1.025;entryDx=0;entryDy=0;entryPerimeter=0;" parent="1" target="w4XMIHq6AyRLh-OTriUX-16" edge="1">
          <mxGeometry width="50" height="50" relative="1" as="geometry">
            <mxPoint x="787" y="850" as="sourcePoint" />
            <mxPoint x="450" y="760" as="targetPoint" />
          </mxGeometry>
        </mxCell>
        <mxCell id="w4XMIHq6AyRLh-OTriUX-28" value="With this column, Privency can collude with ACME Issuer to know user id real identity&lt;br&gt;but it is technically impossible to know what they voted for because the voting identifier is using the Secret.&lt;br&gt;This column is necessary to make sure Alice can only associate one OAuth2 account with this ACME identity" style="text;html=1;align=center;verticalAlign=middle;resizable=0;points=[];autosize=1;strokeColor=none;fillColor=none;" parent="1" vertex="1">
          <mxGeometry x="469.25" y="850" width="600" height="60" as="geometry" />
        </mxCell>
        <mxCell id="w4XMIHq6AyRLh-OTriUX-31" style="edgeStyle=orthogonalEdgeStyle;rounded=0;orthogonalLoop=1;jettySize=auto;html=1;entryX=0.5;entryY=1;entryDx=0;entryDy=0;" parent="1" target="w4XMIHq6AyRLh-OTriUX-154" edge="1">
          <mxGeometry relative="1" as="geometry">
            <mxPoint x="120" y="1347" as="sourcePoint" />
            <mxPoint x="427.5" y="1315" as="targetPoint" />
          </mxGeometry>
        </mxCell>
        <mxCell id="w4XMIHq6AyRLh-OTriUX-32" value="Alice (Holder)" style="shape=umlActor;verticalLabelPosition=bottom;verticalAlign=top;html=1;outlineConnect=0;" parent="1" vertex="1">
          <mxGeometry x="56.25" y="1288" width="50" height="90" as="geometry" />
        </mxCell>
        <mxCell id="w4XMIHq6AyRLh-OTriUX-34" value="presents&lt;br&gt;onClick" style="text;html=1;align=center;verticalAlign=middle;resizable=0;points=[];autosize=1;strokeColor=none;fillColor=none;" parent="1" vertex="1">
          <mxGeometry x="105" y="1302" width="70" height="40" as="geometry" />
        </mxCell>
        <mxCell id="w4XMIHq6AyRLh-OTriUX-56" value="&lt;font color=&quot;#006633&quot;&gt;Proposal Vote Presentation&lt;/font&gt;" style="swimlane;fontStyle=0;childLayout=stackLayout;horizontal=1;startSize=30;horizontalStack=0;resizeParent=1;resizeParentMax=0;resizeLast=0;collapsible=1;marginBottom=0;whiteSpace=wrap;html=1;fillColor=default;" parent="1" vertex="1">
          <mxGeometry x="175" y="1250" width="200" height="250" as="geometry" />
        </mxCell>
        <mxCell id="w4XMIHq6AyRLh-OTriUX-57" value="Proposal ID: 1" style="text;strokeColor=none;fillColor=default;align=left;verticalAlign=middle;spacingLeft=4;spacingRight=4;overflow=hidden;points=[[0,0.5],[1,0.5]];portConstraint=eastwest;rotatable=0;whiteSpace=wrap;html=1;" parent="w4XMIHq6AyRLh-OTriUX-56" vertex="1">
          <mxGeometry y="30" width="200" height="30" as="geometry" />
        </mxCell>
        <mxCell id="w4XMIHq6AyRLh-OTriUX-75" value="Response: No (CID)" style="text;strokeColor=none;fillColor=default;align=left;verticalAlign=middle;spacingLeft=4;spacingRight=4;overflow=hidden;points=[[0,0.5],[1,0.5]];portConstraint=eastwest;rotatable=0;whiteSpace=wrap;html=1;" parent="w4XMIHq6AyRLh-OTriUX-56" vertex="1">
          <mxGeometry y="60" width="200" height="30" as="geometry" />
        </mxCell>
        <mxCell id="w4XMIHq6AyRLh-OTriUX-58" value="Hash_Vote(Secret + Unique ACME ID + Nonce&amp;nbsp;&lt;b style=&quot;border-color: var(--border-color);&quot;&gt;Vote&lt;/b&gt;): hash(48294+121A+3)=034kd9" style="text;strokeColor=none;fillColor=default;align=left;verticalAlign=middle;spacingLeft=4;spacingRight=4;overflow=hidden;points=[[0,0.5],[1,0.5]];portConstraint=eastwest;rotatable=0;whiteSpace=wrap;html=1;" parent="w4XMIHq6AyRLh-OTriUX-56" vertex="1">
          <mxGeometry y="90" width="200" height="50" as="geometry" />
        </mxCell>
        <mxCell id="w4XMIHq6AyRLh-OTriUX-61" value="&lt;div&gt;Status: Student&lt;/div&gt;" style="text;strokeColor=none;fillColor=default;align=left;verticalAlign=middle;spacingLeft=4;spacingRight=4;overflow=hidden;points=[[0,0.5],[1,0.5]];portConstraint=eastwest;rotatable=0;whiteSpace=wrap;html=1;" parent="w4XMIHq6AyRLh-OTriUX-56" vertex="1">
          <mxGeometry y="140" width="200" height="50" as="geometry" />
        </mxCell>
        <mxCell id="w4XMIHq6AyRLh-OTriUX-60" value="&lt;div&gt;Proofs: non revocation, hash vote well calculated, status correctly calculated, hash_ID corresponds to Acme AnonCred&lt;br&gt;&lt;/div&gt;" style="text;strokeColor=none;fillColor=default;align=left;verticalAlign=middle;spacingLeft=4;spacingRight=4;overflow=hidden;points=[[0,0.5],[1,0.5]];portConstraint=eastwest;rotatable=0;whiteSpace=wrap;html=1;" parent="w4XMIHq6AyRLh-OTriUX-56" vertex="1">
          <mxGeometry y="190" width="200" height="60" as="geometry" />
        </mxCell>
        <mxCell id="w4XMIHq6AyRLh-OTriUX-78" value="" style="endArrow=classic;html=1;rounded=0;entryX=0.581;entryY=-0.033;entryDx=0;entryDy=0;entryPerimeter=0;" parent="1" target="w4XMIHq6AyRLh-OTriUX-79" edge="1">
          <mxGeometry width="50" height="50" relative="1" as="geometry">
            <mxPoint x="694" y="1380" as="sourcePoint" />
            <mxPoint x="687.5" y="1565" as="targetPoint" />
          </mxGeometry>
        </mxCell>
        <mxCell id="w4XMIHq6AyRLh-OTriUX-79" value="this identifier is unique to Alice for this specific proposal but it is not correlatable to her real identity,&lt;br&gt;because&lt;b style=&quot;border-color: var(--border-color);&quot;&gt;&amp;nbsp;&lt;/b&gt;&lt;span style=&quot;border-color: var(--border-color);&quot;&gt;only&lt;/span&gt;&lt;b style=&quot;border-color: var(--border-color);&quot;&gt;&amp;nbsp;&lt;/b&gt;Secret+Nonce&amp;nbsp;ISS and ACME ID+Nonce ISS are associated to Alice&#39;s identity" style="text;html=1;align=center;verticalAlign=middle;resizable=0;points=[];autosize=1;strokeColor=none;fillColor=none;" parent="1" vertex="1">
          <mxGeometry x="380" y="1435" width="540" height="40" as="geometry" />
        </mxCell>
        <mxCell id="w4XMIHq6AyRLh-OTriUX-80" value="&lt;b&gt;no need to log in&lt;/b&gt;" style="text;html=1;align=center;verticalAlign=middle;resizable=0;points=[];autosize=1;strokeColor=none;fillColor=none;" parent="1" vertex="1">
          <mxGeometry x="21.87" y="1400" width="120" height="30" as="geometry" />
        </mxCell>
        <mxCell id="w4XMIHq6AyRLh-OTriUX-82" value="&lt;b&gt;Phase 3: revocation&lt;/b&gt;" style="text;html=1;strokeColor=none;fillColor=none;align=center;verticalAlign=middle;whiteSpace=wrap;rounded=0;" parent="1" vertex="1">
          <mxGeometry x="-10" y="1920" width="182.5" height="30" as="geometry" />
        </mxCell>
        <mxCell id="w4XMIHq6AyRLh-OTriUX-86" style="edgeStyle=orthogonalEdgeStyle;rounded=0;orthogonalLoop=1;jettySize=auto;html=1;" parent="1" source="w4XMIHq6AyRLh-OTriUX-83" target="w4XMIHq6AyRLh-OTriUX-85" edge="1">
          <mxGeometry relative="1" as="geometry" />
        </mxCell>
        <mxCell id="w4XMIHq6AyRLh-OTriUX-83" value="Alice (Holder)" style="shape=umlActor;verticalLabelPosition=bottom;verticalAlign=top;html=1;outlineConnect=0;" parent="1" vertex="1">
          <mxGeometry x="50" y="2020" width="50" height="90" as="geometry" />
        </mxCell>
        <mxCell id="w4XMIHq6AyRLh-OTriUX-85" value="Acme University (Issuer)" style="shape=umlActor;verticalLabelPosition=bottom;verticalAlign=top;html=1;outlineConnect=0;" parent="1" vertex="1">
          <mxGeometry x="422.5" y="2020" width="50" height="90" as="geometry" />
        </mxCell>
        <mxCell id="w4XMIHq6AyRLh-OTriUX-87" value="revokes ACME student cards (lost/stolen)" style="text;html=1;align=center;verticalAlign=middle;resizable=0;points=[];autosize=1;strokeColor=none;fillColor=none;" parent="1" vertex="1">
          <mxGeometry x="100" y="2028" width="240" height="30" as="geometry" />
        </mxCell>
        <mxCell id="w4XMIHq6AyRLh-OTriUX-93" value="Alice (Holder)" style="shape=umlActor;verticalLabelPosition=bottom;verticalAlign=top;html=1;outlineConnect=0;" parent="1" vertex="1">
          <mxGeometry x="50" y="2210" width="50" height="90" as="geometry" />
        </mxCell>
        <mxCell id="w4XMIHq6AyRLh-OTriUX-94" style="edgeStyle=orthogonalEdgeStyle;rounded=0;orthogonalLoop=1;jettySize=auto;html=1;strokeColor=default;" parent="1" target="w4XMIHq6AyRLh-OTriUX-93" edge="1">
          <mxGeometry relative="1" as="geometry">
            <mxPoint x="460" y="2250" as="sourcePoint" />
          </mxGeometry>
        </mxCell>
        <mxCell id="w4XMIHq6AyRLh-OTriUX-95" value="Issues&lt;br&gt;&amp;nbsp;potentially &lt;br&gt;multiple copies" style="edgeLabel;html=1;align=center;verticalAlign=middle;resizable=0;points=[];labelBackgroundColor=none;" parent="w4XMIHq6AyRLh-OTriUX-94" vertex="1" connectable="0">
          <mxGeometry x="0.2468" y="-3" relative="1" as="geometry">
            <mxPoint x="180" y="18" as="offset" />
          </mxGeometry>
        </mxCell>
        <mxCell id="w4XMIHq6AyRLh-OTriUX-96" value="Acme University (Issuer)" style="shape=umlActor;verticalLabelPosition=bottom;verticalAlign=top;html=1;outlineConnect=0;" parent="1" vertex="1">
          <mxGeometry x="470" y="2210" width="50" height="90" as="geometry" />
        </mxCell>
        <mxCell id="w4XMIHq6AyRLh-OTriUX-103" value="Internal Acme DB containing all students info" style="shape=cylinder3;whiteSpace=wrap;html=1;boundedLbl=1;backgroundOutline=1;size=15;" parent="1" vertex="1">
          <mxGeometry x="570" y="2210" width="80" height="140" as="geometry" />
        </mxCell>
        <mxCell id="w4XMIHq6AyRLh-OTriUX-104" value="ACME Student AnonCred" style="swimlane;fontStyle=0;childLayout=stackLayout;horizontal=1;startSize=30;horizontalStack=0;resizeParent=1;resizeParentMax=0;resizeLast=0;collapsible=1;marginBottom=0;whiteSpace=wrap;html=1;fillColor=default;" parent="1" vertex="1">
          <mxGeometry x="195" y="2170" width="150" height="240" as="geometry" />
        </mxCell>
        <mxCell id="w4XMIHq6AyRLh-OTriUX-105" value="&lt;b&gt;Unique ID: 121A&lt;/b&gt;" style="text;strokeColor=none;fillColor=default;align=left;verticalAlign=middle;spacingLeft=4;spacingRight=4;overflow=hidden;points=[[0,0.5],[1,0.5]];portConstraint=eastwest;rotatable=0;whiteSpace=wrap;html=1;" parent="w4XMIHq6AyRLh-OTriUX-104" vertex="1">
          <mxGeometry y="30" width="150" height="30" as="geometry" />
        </mxCell>
        <mxCell id="w4XMIHq6AyRLh-OTriUX-106" value="&lt;div&gt;Name: Alice&lt;/div&gt;" style="text;strokeColor=none;fillColor=default;align=left;verticalAlign=middle;spacingLeft=4;spacingRight=4;overflow=hidden;points=[[0,0.5],[1,0.5]];portConstraint=eastwest;rotatable=0;whiteSpace=wrap;html=1;" parent="w4XMIHq6AyRLh-OTriUX-104" vertex="1">
          <mxGeometry y="60" width="150" height="30" as="geometry" />
        </mxCell>
        <mxCell id="w4XMIHq6AyRLh-OTriUX-107" value="Surname: Dupont" style="text;strokeColor=none;fillColor=default;align=left;verticalAlign=middle;spacingLeft=4;spacingRight=4;overflow=hidden;points=[[0,0.5],[1,0.5]];portConstraint=eastwest;rotatable=0;whiteSpace=wrap;html=1;" parent="w4XMIHq6AyRLh-OTriUX-104" vertex="1">
          <mxGeometry y="90" width="150" height="30" as="geometry" />
        </mxCell>
        <mxCell id="w4XMIHq6AyRLh-OTriUX-108" value="Addr: 3 rue charles, Paris" style="text;strokeColor=none;fillColor=default;align=left;verticalAlign=middle;spacingLeft=4;spacingRight=4;overflow=hidden;points=[[0,0.5],[1,0.5]];portConstraint=eastwest;rotatable=0;whiteSpace=wrap;html=1;" parent="w4XMIHq6AyRLh-OTriUX-104" vertex="1">
          <mxGeometry y="120" width="150" height="30" as="geometry" />
        </mxCell>
        <mxCell id="w4XMIHq6AyRLh-OTriUX-109" value="Age: 23" style="text;strokeColor=none;fillColor=default;align=left;verticalAlign=middle;spacingLeft=4;spacingRight=4;overflow=hidden;points=[[0,0.5],[1,0.5]];portConstraint=eastwest;rotatable=0;whiteSpace=wrap;html=1;" parent="w4XMIHq6AyRLh-OTriUX-104" vertex="1">
          <mxGeometry y="150" width="150" height="30" as="geometry" />
        </mxCell>
        <mxCell id="w4XMIHq6AyRLh-OTriUX-110" value="&lt;div&gt;Status: Student&lt;/div&gt;" style="text;strokeColor=none;fillColor=default;align=left;verticalAlign=middle;spacingLeft=4;spacingRight=4;overflow=hidden;points=[[0,0.5],[1,0.5]];portConstraint=eastwest;rotatable=0;whiteSpace=wrap;html=1;" parent="w4XMIHq6AyRLh-OTriUX-104" vertex="1">
          <mxGeometry y="180" width="150" height="30" as="geometry" />
        </mxCell>
        <mxCell id="w4XMIHq6AyRLh-OTriUX-111" value="&lt;div&gt;Signature: University&lt;/div&gt;" style="text;strokeColor=none;fillColor=default;align=left;verticalAlign=middle;spacingLeft=4;spacingRight=4;overflow=hidden;points=[[0,0.5],[1,0.5]];portConstraint=eastwest;rotatable=0;whiteSpace=wrap;html=1;" parent="w4XMIHq6AyRLh-OTriUX-104" vertex="1">
          <mxGeometry y="210" width="150" height="30" as="geometry" />
        </mxCell>
        <mxCell id="w4XMIHq6AyRLh-OTriUX-113" value="So long as the Unique ID for Alice has not changed, she can still vote like before if she still has her Proposal Vote AnonCred.&lt;br&gt;" style="text;html=1;align=center;verticalAlign=middle;resizable=0;points=[];autosize=1;strokeColor=none;fillColor=none;" parent="1" vertex="1">
          <mxGeometry y="2410" width="680" height="30" as="geometry" />
        </mxCell>
        <mxCell id="w4XMIHq6AyRLh-OTriUX-114" value="x5" style="text;html=1;align=center;verticalAlign=middle;resizable=0;points=[];autosize=1;strokeColor=none;fillColor=none;" parent="1" vertex="1">
          <mxGeometry x="340" y="2160" width="40" height="30" as="geometry" />
        </mxCell>
        <mxCell id="w4XMIHq6AyRLh-OTriUX-115" value="&lt;b&gt;Case 1:&lt;/b&gt; Alice lost her wallet with her ACME student card, but she still has access to her Proposal Vote Anoncred" style="text;html=1;align=center;verticalAlign=middle;resizable=0;points=[];autosize=1;strokeColor=none;fillColor=none;" parent="1" vertex="1">
          <mxGeometry x="61.25" y="1970" width="620" height="30" as="geometry" />
        </mxCell>
        <mxCell id="w4XMIHq6AyRLh-OTriUX-147" value="&lt;b&gt;Case 2:&lt;/b&gt; Alice also lost her Proposal Vote AnonCred" style="text;html=1;align=center;verticalAlign=middle;resizable=0;points=[];autosize=1;strokeColor=none;fillColor=none;" parent="1" vertex="1">
          <mxGeometry x="231.25" y="2460" width="300" height="30" as="geometry" />
        </mxCell>
        <mxCell id="w4XMIHq6AyRLh-OTriUX-148" value="Alice get new ACME Student AnonCred, like shown above. What about the Proposal Vote AnonCred?" style="text;html=1;align=center;verticalAlign=middle;resizable=0;points=[];autosize=1;strokeColor=none;fillColor=none;" parent="1" vertex="1">
          <mxGeometry x="91.25" y="2480" width="560" height="30" as="geometry" />
        </mxCell>
        <mxCell id="w4XMIHq6AyRLh-OTriUX-151" value="Have you ever been discriminated against?" style="ellipse;shape=cloud;whiteSpace=wrap;html=1;" parent="1" vertex="1">
          <mxGeometry x="410" y="1240" width="180" height="130" as="geometry" />
        </mxCell>
        <mxCell id="w4XMIHq6AyRLh-OTriUX-152" value="Yes" style="rounded=0;whiteSpace=wrap;html=1;" parent="1" vertex="1">
          <mxGeometry x="440" y="1342" width="57.5" height="18" as="geometry" />
        </mxCell>
        <mxCell id="w4XMIHq6AyRLh-OTriUX-154" value="No" style="rounded=0;whiteSpace=wrap;html=1;" parent="1" vertex="1">
          <mxGeometry x="512.75" y="1342" width="57.5" height="18" as="geometry" />
        </mxCell>
        <mxCell id="w4XMIHq6AyRLh-OTriUX-156" style="edgeStyle=orthogonalEdgeStyle;rounded=0;orthogonalLoop=1;jettySize=auto;html=1;entryX=0;entryY=0.5;entryDx=0;entryDy=0;" parent="1" target="w4XMIHq6AyRLh-OTriUX-182" edge="1">
          <mxGeometry relative="1" as="geometry">
            <mxPoint x="125" y="1747" as="sourcePoint" />
            <mxPoint x="432.5" y="1715" as="targetPoint" />
            <Array as="points">
              <mxPoint x="321" y="1747" />
              <mxPoint x="321" y="1751" />
            </Array>
          </mxGeometry>
        </mxCell>
        <mxCell id="w4XMIHq6AyRLh-OTriUX-157" value="Alice (Holder)" style="shape=umlActor;verticalLabelPosition=bottom;verticalAlign=top;html=1;outlineConnect=0;" parent="1" vertex="1">
          <mxGeometry x="60" y="1670" width="50" height="90" as="geometry" />
        </mxCell>
        <mxCell id="w4XMIHq6AyRLh-OTriUX-158" value="presents&lt;br&gt;onClick" style="text;html=1;align=center;verticalAlign=middle;resizable=0;points=[];autosize=1;strokeColor=none;fillColor=none;" parent="1" vertex="1">
          <mxGeometry x="110" y="1702" width="70" height="40" as="geometry" />
        </mxCell>
        <mxCell id="w4XMIHq6AyRLh-OTriUX-159" value="&lt;font color=&quot;#0000ff&quot;&gt;Proposal Vote Presentation&lt;/font&gt;" style="swimlane;fontStyle=0;childLayout=stackLayout;horizontal=1;startSize=30;horizontalStack=0;resizeParent=1;resizeParentMax=0;resizeLast=0;collapsible=1;marginBottom=0;whiteSpace=wrap;html=1;fillColor=default;" parent="1" vertex="1">
          <mxGeometry x="180" y="1650" width="200" height="250" as="geometry" />
        </mxCell>
        <mxCell id="w4XMIHq6AyRLh-OTriUX-160" value="Proposal ID: 1" style="text;strokeColor=none;fillColor=default;align=left;verticalAlign=middle;spacingLeft=4;spacingRight=4;overflow=hidden;points=[[0,0.5],[1,0.5]];portConstraint=eastwest;rotatable=0;whiteSpace=wrap;html=1;" parent="w4XMIHq6AyRLh-OTriUX-159" vertex="1">
          <mxGeometry y="30" width="200" height="30" as="geometry" />
        </mxCell>
        <mxCell id="w4XMIHq6AyRLh-OTriUX-161" value="Response: Yes (CID)" style="text;strokeColor=none;fillColor=default;align=left;verticalAlign=middle;spacingLeft=4;spacingRight=4;overflow=hidden;points=[[0,0.5],[1,0.5]];portConstraint=eastwest;rotatable=0;whiteSpace=wrap;html=1;" parent="w4XMIHq6AyRLh-OTriUX-159" vertex="1">
          <mxGeometry y="60" width="200" height="30" as="geometry" />
        </mxCell>
        <mxCell id="w4XMIHq6AyRLh-OTriUX-162" value="Hash_Vote(Secret + Unique ACME ID + Nonce&amp;nbsp;&lt;b style=&quot;border-color: var(--border-color);&quot;&gt;Vote&lt;/b&gt;): hash(48294+121A+3)=034kd9" style="text;strokeColor=none;fillColor=default;align=left;verticalAlign=middle;spacingLeft=4;spacingRight=4;overflow=hidden;points=[[0,0.5],[1,0.5]];portConstraint=eastwest;rotatable=0;whiteSpace=wrap;html=1;" parent="w4XMIHq6AyRLh-OTriUX-159" vertex="1">
          <mxGeometry y="90" width="200" height="50" as="geometry" />
        </mxCell>
        <mxCell id="w4XMIHq6AyRLh-OTriUX-163" value="&lt;div&gt;Status: Student&lt;/div&gt;" style="text;strokeColor=none;fillColor=default;align=left;verticalAlign=middle;spacingLeft=4;spacingRight=4;overflow=hidden;points=[[0,0.5],[1,0.5]];portConstraint=eastwest;rotatable=0;whiteSpace=wrap;html=1;" parent="w4XMIHq6AyRLh-OTriUX-159" vertex="1">
          <mxGeometry y="140" width="200" height="50" as="geometry" />
        </mxCell>
        <mxCell id="w4XMIHq6AyRLh-OTriUX-164" value="&lt;div&gt;Proofs: non revocation, hash vote well calculated, status correctly calculated, hash_ID corresponds to Acme AnonCred&lt;br&gt;&lt;/div&gt;" style="text;strokeColor=none;fillColor=default;align=left;verticalAlign=middle;spacingLeft=4;spacingRight=4;overflow=hidden;points=[[0,0.5],[1,0.5]];portConstraint=eastwest;rotatable=0;whiteSpace=wrap;html=1;" parent="w4XMIHq6AyRLh-OTriUX-159" vertex="1">
          <mxGeometry y="190" width="200" height="60" as="geometry" />
        </mxCell>
        <mxCell id="w4XMIHq6AyRLh-OTriUX-179" value="no need to log in" style="text;html=1;align=center;verticalAlign=middle;resizable=0;points=[];autosize=1;strokeColor=none;fillColor=none;" parent="1" vertex="1">
          <mxGeometry x="30" y="1778" width="110" height="30" as="geometry" />
        </mxCell>
        <mxCell id="w4XMIHq6AyRLh-OTriUX-181" value="Have you ever been discriminated against?" style="ellipse;shape=cloud;whiteSpace=wrap;html=1;" parent="1" vertex="1">
          <mxGeometry x="415" y="1640" width="180" height="130" as="geometry" />
        </mxCell>
        <mxCell id="w4XMIHq6AyRLh-OTriUX-182" value="Yes" style="rounded=0;whiteSpace=wrap;html=1;" parent="1" vertex="1">
          <mxGeometry x="445" y="1742" width="57.5" height="18" as="geometry" />
        </mxCell>
        <mxCell id="w4XMIHq6AyRLh-OTriUX-183" value="No" style="rounded=0;whiteSpace=wrap;html=1;" parent="1" vertex="1">
          <mxGeometry x="517.75" y="1742" width="57.5" height="18" as="geometry" />
        </mxCell>
        <mxCell id="w4XMIHq6AyRLh-OTriUX-198" value="🕒 schedule-send from frontend&lt;br&gt;whenever privacy is protected &lt;br&gt;(enough people have registered and not voted yet, &lt;br&gt;and enough time has passed after Alice&#39;s registration)&lt;br&gt;Server uses TSA to attest vote timestamp, and publish those on libp2p topic" style="text;html=1;align=center;verticalAlign=middle;resizable=0;points=[];autosize=1;strokeColor=none;fillColor=none;" parent="1" vertex="1">
          <mxGeometry x="55" y="1500" width="430" height="90" as="geometry" />
        </mxCell>
        <mxCell id="w4XMIHq6AyRLh-OTriUX-213" value="Response table" style="shape=table;startSize=30;container=1;collapsible=0;childLayout=tableLayout;" parent="1" vertex="1">
          <mxGeometry x="588.5" y="1250" width="361.5" height="160" as="geometry" />
        </mxCell>
        <mxCell id="w4XMIHq6AyRLh-OTriUX-214" value="" style="shape=tableRow;horizontal=0;startSize=0;swimlaneHead=0;swimlaneBody=0;strokeColor=inherit;top=0;left=0;bottom=0;right=0;collapsible=0;dropTarget=0;fillColor=none;points=[[0,0.5],[1,0.5]];portConstraint=eastwest;" parent="w4XMIHq6AyRLh-OTriUX-213" vertex="1">
          <mxGeometry y="30" width="361.5" height="40" as="geometry" />
        </mxCell>
        <mxCell id="w4XMIHq6AyRLh-OTriUX-215" value="proposal_id" style="shape=partialRectangle;html=1;whiteSpace=wrap;connectable=0;strokeColor=inherit;overflow=hidden;fillColor=none;top=0;left=0;bottom=0;right=0;pointerEvents=1;" parent="w4XMIHq6AyRLh-OTriUX-214" vertex="1">
          <mxGeometry width="82" height="40" as="geometry">
            <mxRectangle width="82" height="40" as="alternateBounds" />
          </mxGeometry>
        </mxCell>
        <mxCell id="w4XMIHq6AyRLh-OTriUX-216" value="hash vote" style="shape=partialRectangle;html=1;whiteSpace=wrap;connectable=0;strokeColor=inherit;overflow=hidden;fillColor=none;top=0;left=0;bottom=0;right=0;pointerEvents=1;" parent="w4XMIHq6AyRLh-OTriUX-214" vertex="1">
          <mxGeometry x="82" width="57" height="40" as="geometry">
            <mxRectangle width="57" height="40" as="alternateBounds" />
          </mxGeometry>
        </mxCell>
        <mxCell id="w4XMIHq6AyRLh-OTriUX-217" value="response" style="shape=partialRectangle;html=1;whiteSpace=wrap;connectable=0;strokeColor=inherit;overflow=hidden;fillColor=none;top=0;left=0;bottom=0;right=0;pointerEvents=1;" parent="w4XMIHq6AyRLh-OTriUX-214" vertex="1">
          <mxGeometry x="139" width="66" height="40" as="geometry">
            <mxRectangle width="66" height="40" as="alternateBounds" />
          </mxGeometry>
        </mxCell>
        <mxCell id="w4XMIHq6AyRLh-OTriUX-218" value="timestamp" style="shape=partialRectangle;html=1;whiteSpace=wrap;connectable=0;strokeColor=inherit;overflow=hidden;fillColor=none;top=0;left=0;bottom=0;right=0;pointerEvents=1;" parent="w4XMIHq6AyRLh-OTriUX-214" vertex="1">
          <mxGeometry x="205" width="69" height="40" as="geometry">
            <mxRectangle width="69" height="40" as="alternateBounds" />
          </mxGeometry>
        </mxCell>
        <mxCell id="w4XMIHq6AyRLh-OTriUX-219" value="proof" style="shape=partialRectangle;html=1;whiteSpace=wrap;connectable=0;strokeColor=inherit;overflow=hidden;fillColor=none;top=0;left=0;bottom=0;right=0;pointerEvents=1;" parent="w4XMIHq6AyRLh-OTriUX-214" vertex="1">
          <mxGeometry x="274" width="88" height="40" as="geometry">
            <mxRectangle width="88" height="40" as="alternateBounds" />
          </mxGeometry>
        </mxCell>
        <mxCell id="w4XMIHq6AyRLh-OTriUX-220" value="" style="shape=tableRow;horizontal=0;startSize=0;swimlaneHead=0;swimlaneBody=0;strokeColor=inherit;top=0;left=0;bottom=0;right=0;collapsible=0;dropTarget=0;fillColor=none;points=[[0,0.5],[1,0.5]];portConstraint=eastwest;" parent="w4XMIHq6AyRLh-OTriUX-213" vertex="1">
          <mxGeometry y="70" width="361.5" height="90" as="geometry" />
        </mxCell>
        <mxCell id="w4XMIHq6AyRLh-OTriUX-221" value="1" style="shape=partialRectangle;html=1;whiteSpace=wrap;connectable=0;strokeColor=inherit;overflow=hidden;fillColor=none;top=0;left=0;bottom=0;right=0;pointerEvents=1;" parent="w4XMIHq6AyRLh-OTriUX-220" vertex="1">
          <mxGeometry width="82" height="90" as="geometry">
            <mxRectangle width="82" height="90" as="alternateBounds" />
          </mxGeometry>
        </mxCell>
        <mxCell id="w4XMIHq6AyRLh-OTriUX-222" value="034kd9" style="shape=partialRectangle;html=1;whiteSpace=wrap;connectable=0;strokeColor=inherit;overflow=hidden;fillColor=none;top=0;left=0;bottom=0;right=0;pointerEvents=1;" parent="w4XMIHq6AyRLh-OTriUX-220" vertex="1">
          <mxGeometry x="82" width="57" height="90" as="geometry">
            <mxRectangle width="57" height="90" as="alternateBounds" />
          </mxGeometry>
        </mxCell>
        <mxCell id="w4XMIHq6AyRLh-OTriUX-223" value="No" style="shape=partialRectangle;html=1;whiteSpace=wrap;connectable=0;strokeColor=inherit;overflow=hidden;fillColor=none;top=0;left=0;bottom=0;right=0;pointerEvents=1;" parent="w4XMIHq6AyRLh-OTriUX-220" vertex="1">
          <mxGeometry x="139" width="66" height="90" as="geometry">
            <mxRectangle width="66" height="90" as="alternateBounds" />
          </mxGeometry>
        </mxCell>
        <mxCell id="w4XMIHq6AyRLh-OTriUX-224" value="1682690212" style="shape=partialRectangle;html=1;whiteSpace=wrap;connectable=0;strokeColor=inherit;overflow=hidden;fillColor=none;top=0;left=0;bottom=0;right=0;pointerEvents=1;" parent="w4XMIHq6AyRLh-OTriUX-220" vertex="1">
          <mxGeometry x="205" width="69" height="90" as="geometry">
            <mxRectangle width="69" height="90" as="alternateBounds" />
          </mxGeometry>
        </mxCell>
        <mxCell id="w4XMIHq6AyRLh-OTriUX-225" value="&lt;font color=&quot;#006633&quot;&gt;Proposal Vote Presentation + TSA .tsr file&lt;/font&gt;" style="shape=partialRectangle;html=1;whiteSpace=wrap;connectable=0;strokeColor=inherit;overflow=hidden;fillColor=none;top=0;left=0;bottom=0;right=0;pointerEvents=1;" parent="w4XMIHq6AyRLh-OTriUX-220" vertex="1">
          <mxGeometry x="274" width="88" height="90" as="geometry">
            <mxRectangle width="88" height="90" as="alternateBounds" />
          </mxGeometry>
        </mxCell>
        <mxCell id="w4XMIHq6AyRLh-OTriUX-226" value="broadcasted on libp2p node&lt;br&gt;for transparency and verifiability" style="text;html=1;align=center;verticalAlign=middle;resizable=0;points=[];autosize=1;strokeColor=none;fillColor=none;" parent="1" vertex="1">
          <mxGeometry x="770" y="1485" width="190" height="40" as="geometry" />
        </mxCell>
        <mxCell id="w4XMIHq6AyRLh-OTriUX-228" value="" style="endArrow=classic;html=1;rounded=0;entryX=0.835;entryY=-0.033;entryDx=0;entryDy=0;entryPerimeter=0;" parent="1" target="w4XMIHq6AyRLh-OTriUX-226" edge="1">
          <mxGeometry width="50" height="50" relative="1" as="geometry">
            <mxPoint x="920" y="1400" as="sourcePoint" />
            <mxPoint x="460" y="1500" as="targetPoint" />
          </mxGeometry>
        </mxCell>
        <mxCell id="w4XMIHq6AyRLh-OTriUX-229" value="...after the vote has went through, Alice changes her mind" style="text;html=1;align=center;verticalAlign=middle;resizable=0;points=[];autosize=1;strokeColor=none;fillColor=none;" parent="1" vertex="1">
          <mxGeometry x="55" y="1608" width="330" height="30" as="geometry" />
        </mxCell>
        <mxCell id="w4XMIHq6AyRLh-OTriUX-231" value="This column is necessary to make sure the same identifier &lt;br&gt;will always be used to uniquely identify Alice votes (made of a unique Secret per user per proposal),&amp;nbsp;&lt;br&gt;even after she revoked her credentials, and try to vote again" style="text;html=1;align=center;verticalAlign=middle;resizable=0;points=[];autosize=1;strokeColor=none;fillColor=none;" parent="1" vertex="1">
          <mxGeometry x="451.25" y="910" width="560" height="60" as="geometry" />
        </mxCell>
        <mxCell id="w4XMIHq6AyRLh-OTriUX-234" value="" style="endArrow=classic;html=1;rounded=0;entryX=0.671;entryY=1;entryDx=0;entryDy=0;entryPerimeter=0;" parent="1" target="w4XMIHq6AyRLh-OTriUX-16" edge="1">
          <mxGeometry width="50" height="50" relative="1" as="geometry">
            <mxPoint x="741" y="910" as="sourcePoint" />
            <mxPoint x="460" y="750" as="targetPoint" />
            <Array as="points">
              <mxPoint x="740" y="910" />
              <mxPoint x="741" y="870" />
            </Array>
          </mxGeometry>
        </mxCell>
        <mxCell id="w4XMIHq6AyRLh-OTriUX-249" value="Response table" style="shape=table;startSize=30;container=1;collapsible=0;childLayout=tableLayout;" parent="1" vertex="1">
          <mxGeometry x="590" y="1650" width="360" height="170" as="geometry" />
        </mxCell>
        <mxCell id="w4XMIHq6AyRLh-OTriUX-250" value="" style="shape=tableRow;horizontal=0;startSize=0;swimlaneHead=0;swimlaneBody=0;strokeColor=inherit;top=0;left=0;bottom=0;right=0;collapsible=0;dropTarget=0;fillColor=none;points=[[0,0.5],[1,0.5]];portConstraint=eastwest;" parent="w4XMIHq6AyRLh-OTriUX-249" vertex="1">
          <mxGeometry y="30" width="360" height="40" as="geometry" />
        </mxCell>
        <mxCell id="w4XMIHq6AyRLh-OTriUX-251" value="proposal_id" style="shape=partialRectangle;html=1;whiteSpace=wrap;connectable=0;strokeColor=inherit;overflow=hidden;fillColor=none;top=0;left=0;bottom=0;right=0;pointerEvents=1;" parent="w4XMIHq6AyRLh-OTriUX-250" vertex="1">
          <mxGeometry width="70" height="40" as="geometry">
            <mxRectangle width="70" height="40" as="alternateBounds" />
          </mxGeometry>
        </mxCell>
        <mxCell id="w4XMIHq6AyRLh-OTriUX-252" value="hash vote" style="shape=partialRectangle;html=1;whiteSpace=wrap;connectable=0;strokeColor=inherit;overflow=hidden;fillColor=none;top=0;left=0;bottom=0;right=0;pointerEvents=1;" parent="w4XMIHq6AyRLh-OTriUX-250" vertex="1">
          <mxGeometry x="70" width="50" height="40" as="geometry">
            <mxRectangle width="50" height="40" as="alternateBounds" />
          </mxGeometry>
        </mxCell>
        <mxCell id="w4XMIHq6AyRLh-OTriUX-253" value="response" style="shape=partialRectangle;html=1;whiteSpace=wrap;connectable=0;strokeColor=inherit;overflow=hidden;fillColor=none;top=0;left=0;bottom=0;right=0;pointerEvents=1;" parent="w4XMIHq6AyRLh-OTriUX-250" vertex="1">
          <mxGeometry x="120" width="60" height="40" as="geometry">
            <mxRectangle width="60" height="40" as="alternateBounds" />
          </mxGeometry>
        </mxCell>
        <mxCell id="w4XMIHq6AyRLh-OTriUX-254" value="timestamp" style="shape=partialRectangle;html=1;whiteSpace=wrap;connectable=0;strokeColor=inherit;overflow=hidden;fillColor=none;top=0;left=0;bottom=0;right=0;pointerEvents=1;" parent="w4XMIHq6AyRLh-OTriUX-250" vertex="1">
          <mxGeometry x="180" width="80" height="40" as="geometry">
            <mxRectangle width="80" height="40" as="alternateBounds" />
          </mxGeometry>
        </mxCell>
        <mxCell id="w4XMIHq6AyRLh-OTriUX-255" value="proof" style="shape=partialRectangle;html=1;whiteSpace=wrap;connectable=0;strokeColor=inherit;overflow=hidden;fillColor=none;top=0;left=0;bottom=0;right=0;pointerEvents=1;" parent="w4XMIHq6AyRLh-OTriUX-250" vertex="1">
          <mxGeometry x="260" width="100" height="40" as="geometry">
            <mxRectangle width="100" height="40" as="alternateBounds" />
          </mxGeometry>
        </mxCell>
        <mxCell id="w4XMIHq6AyRLh-OTriUX-256" value="" style="shape=tableRow;horizontal=0;startSize=0;swimlaneHead=0;swimlaneBody=0;strokeColor=inherit;top=0;left=0;bottom=0;right=0;collapsible=0;dropTarget=0;fillColor=none;points=[[0,0.5],[1,0.5]];portConstraint=eastwest;" parent="w4XMIHq6AyRLh-OTriUX-249" vertex="1">
          <mxGeometry y="70" width="360" height="50" as="geometry" />
        </mxCell>
        <mxCell id="w4XMIHq6AyRLh-OTriUX-257" value="1" style="shape=partialRectangle;html=1;whiteSpace=wrap;connectable=0;strokeColor=inherit;overflow=hidden;fillColor=none;top=0;left=0;bottom=0;right=0;pointerEvents=1;" parent="w4XMIHq6AyRLh-OTriUX-256" vertex="1">
          <mxGeometry width="70" height="50" as="geometry">
            <mxRectangle width="70" height="50" as="alternateBounds" />
          </mxGeometry>
        </mxCell>
        <mxCell id="w4XMIHq6AyRLh-OTriUX-258" value="034kd9" style="shape=partialRectangle;html=1;whiteSpace=wrap;connectable=0;strokeColor=inherit;overflow=hidden;fillColor=none;top=0;left=0;bottom=0;right=0;pointerEvents=1;" parent="w4XMIHq6AyRLh-OTriUX-256" vertex="1">
          <mxGeometry x="70" width="50" height="50" as="geometry">
            <mxRectangle width="50" height="50" as="alternateBounds" />
          </mxGeometry>
        </mxCell>
        <mxCell id="w4XMIHq6AyRLh-OTriUX-259" value="No" style="shape=partialRectangle;html=1;whiteSpace=wrap;connectable=0;strokeColor=inherit;overflow=hidden;fillColor=none;top=0;left=0;bottom=0;right=0;pointerEvents=1;" parent="w4XMIHq6AyRLh-OTriUX-256" vertex="1">
          <mxGeometry x="120" width="60" height="50" as="geometry">
            <mxRectangle width="60" height="50" as="alternateBounds" />
          </mxGeometry>
        </mxCell>
        <mxCell id="w4XMIHq6AyRLh-OTriUX-260" value="1682690212" style="shape=partialRectangle;html=1;whiteSpace=wrap;connectable=0;strokeColor=inherit;overflow=hidden;fillColor=none;top=0;left=0;bottom=0;right=0;pointerEvents=1;" parent="w4XMIHq6AyRLh-OTriUX-256" vertex="1">
          <mxGeometry x="180" width="80" height="50" as="geometry">
            <mxRectangle width="80" height="50" as="alternateBounds" />
          </mxGeometry>
        </mxCell>
        <mxCell id="w4XMIHq6AyRLh-OTriUX-261" value="&lt;font color=&quot;#006633&quot;&gt;Proposal Vote Presentation + TSA .tsr file&lt;/font&gt;" style="shape=partialRectangle;html=1;whiteSpace=wrap;connectable=0;strokeColor=inherit;overflow=hidden;fillColor=none;top=0;left=0;bottom=0;right=0;pointerEvents=1;" parent="w4XMIHq6AyRLh-OTriUX-256" vertex="1">
          <mxGeometry x="260" width="100" height="50" as="geometry">
            <mxRectangle width="100" height="50" as="alternateBounds" />
          </mxGeometry>
        </mxCell>
        <mxCell id="w4XMIHq6AyRLh-OTriUX-262" value="" style="shape=tableRow;horizontal=0;startSize=0;swimlaneHead=0;swimlaneBody=0;strokeColor=inherit;top=0;left=0;bottom=0;right=0;collapsible=0;dropTarget=0;fillColor=none;points=[[0,0.5],[1,0.5]];portConstraint=eastwest;" parent="w4XMIHq6AyRLh-OTriUX-249" vertex="1">
          <mxGeometry y="120" width="360" height="50" as="geometry" />
        </mxCell>
        <mxCell id="w4XMIHq6AyRLh-OTriUX-263" value="1" style="shape=partialRectangle;html=1;whiteSpace=wrap;connectable=0;strokeColor=inherit;overflow=hidden;fillColor=none;top=0;left=0;bottom=0;right=0;pointerEvents=1;" parent="w4XMIHq6AyRLh-OTriUX-262" vertex="1">
          <mxGeometry width="70" height="50" as="geometry">
            <mxRectangle width="70" height="50" as="alternateBounds" />
          </mxGeometry>
        </mxCell>
        <mxCell id="w4XMIHq6AyRLh-OTriUX-264" value="034kd9" style="shape=partialRectangle;html=1;whiteSpace=wrap;connectable=0;strokeColor=inherit;overflow=hidden;fillColor=none;top=0;left=0;bottom=0;right=0;pointerEvents=1;" parent="w4XMIHq6AyRLh-OTriUX-262" vertex="1">
          <mxGeometry x="70" width="50" height="50" as="geometry">
            <mxRectangle width="50" height="50" as="alternateBounds" />
          </mxGeometry>
        </mxCell>
        <mxCell id="w4XMIHq6AyRLh-OTriUX-265" value="Yes" style="shape=partialRectangle;html=1;whiteSpace=wrap;connectable=0;strokeColor=inherit;overflow=hidden;fillColor=none;top=0;left=0;bottom=0;right=0;pointerEvents=1;" parent="w4XMIHq6AyRLh-OTriUX-262" vertex="1">
          <mxGeometry x="120" width="60" height="50" as="geometry">
            <mxRectangle width="60" height="50" as="alternateBounds" />
          </mxGeometry>
        </mxCell>
        <mxCell id="w4XMIHq6AyRLh-OTriUX-266" value="1694700880" style="shape=partialRectangle;html=1;whiteSpace=wrap;connectable=0;strokeColor=inherit;overflow=hidden;fillColor=none;top=0;left=0;bottom=0;right=0;pointerEvents=1;" parent="w4XMIHq6AyRLh-OTriUX-262" vertex="1">
          <mxGeometry x="180" width="80" height="50" as="geometry">
            <mxRectangle width="80" height="50" as="alternateBounds" />
          </mxGeometry>
        </mxCell>
        <mxCell id="w4XMIHq6AyRLh-OTriUX-267" value="&lt;font color=&quot;#0000ff&quot;&gt;Proposal Vote Presentation + TSA .tsr file&lt;/font&gt;" style="shape=partialRectangle;html=1;whiteSpace=wrap;connectable=0;strokeColor=inherit;overflow=hidden;fillColor=none;top=0;left=0;bottom=0;right=0;pointerEvents=1;" parent="w4XMIHq6AyRLh-OTriUX-262" vertex="1">
          <mxGeometry x="260" width="100" height="50" as="geometry">
            <mxRectangle width="100" height="50" as="alternateBounds" />
          </mxGeometry>
        </mxCell>
        <mxCell id="w4XMIHq6AyRLh-OTriUX-268" value="Same ID: the vote won&#39;t count twice" style="text;html=1;align=center;verticalAlign=middle;resizable=0;points=[];autosize=1;strokeColor=none;fillColor=none;" parent="1" vertex="1">
          <mxGeometry x="584.5" y="1820" width="210" height="30" as="geometry" />
        </mxCell>
        <mxCell id="w4XMIHq6AyRLh-OTriUX-271" value="" style="endArrow=classic;html=1;rounded=0;exitX=0.46;exitY=0.043;exitDx=0;exitDy=0;exitPerimeter=0;" parent="1" source="w4XMIHq6AyRLh-OTriUX-268" edge="1">
          <mxGeometry width="50" height="50" relative="1" as="geometry">
            <mxPoint x="510" y="1890" as="sourcePoint" />
            <mxPoint x="680" y="1800" as="targetPoint" />
          </mxGeometry>
        </mxCell>
        <mxCell id="w4XMIHq6AyRLh-OTriUX-273" style="edgeStyle=orthogonalEdgeStyle;rounded=0;orthogonalLoop=1;jettySize=auto;html=1;exitX=0.643;exitY=-0.026;exitDx=0;exitDy=0;exitPerimeter=0;" parent="1" source="w4XMIHq6AyRLh-OTriUX-272" edge="1">
          <mxGeometry relative="1" as="geometry">
            <mxPoint x="810" y="1800" as="targetPoint" />
            <Array as="points">
              <mxPoint x="810" y="1840" />
              <mxPoint x="810" y="1840" />
            </Array>
          </mxGeometry>
        </mxCell>
        <mxCell id="w4XMIHq6AyRLh-OTriUX-272" value="Timestamp is a later date: we can provide snapshots of the votes over time" style="text;html=1;align=center;verticalAlign=middle;resizable=0;points=[];autosize=1;strokeColor=none;fillColor=none;" parent="1" vertex="1">
          <mxGeometry x="540" y="1860" width="420" height="30" as="geometry" />
        </mxCell>
        <mxCell id="RCCIjt6ZIgI7EhZnLY2O-1" value="&lt;b&gt;Case 2.1:&lt;/b&gt; Alice remembers her Secret (&lt;b&gt;48294&lt;/b&gt;)" style="text;html=1;align=center;verticalAlign=middle;resizable=0;points=[];autosize=1;strokeColor=none;fillColor=none;" vertex="1" parent="1">
          <mxGeometry x="206.19" y="2720" width="270" height="30" as="geometry" />
        </mxCell>
        <mxCell id="RCCIjt6ZIgI7EhZnLY2O-3" style="edgeStyle=orthogonalEdgeStyle;rounded=0;orthogonalLoop=1;jettySize=auto;html=1;entryX=0;entryY=0.5;entryDx=0;entryDy=0;" edge="1" parent="1" source="RCCIjt6ZIgI7EhZnLY2O-4" target="RCCIjt6ZIgI7EhZnLY2O-6">
          <mxGeometry relative="1" as="geometry">
            <mxPoint x="378.75" y="2620" as="targetPoint" />
            <Array as="points">
              <mxPoint x="383.75" y="2625" />
            </Array>
          </mxGeometry>
        </mxCell>
        <mxCell id="RCCIjt6ZIgI7EhZnLY2O-4" value="Alice (Holder)" style="shape=umlActor;verticalLabelPosition=bottom;verticalAlign=top;html=1;outlineConnect=0;" vertex="1" parent="1">
          <mxGeometry x="38.75" y="2580" width="50" height="90" as="geometry" />
        </mxCell>
        <mxCell id="RCCIjt6ZIgI7EhZnLY2O-5" value="Have you ever been discriminated against?" style="ellipse;shape=cloud;whiteSpace=wrap;html=1;" vertex="1" parent="1">
          <mxGeometry x="331.87" y="2790" width="180" height="130" as="geometry" />
        </mxCell>
        <mxCell id="RCCIjt6ZIgI7EhZnLY2O-6" value="Privency website" style="whiteSpace=wrap;html=1;aspect=fixed;" vertex="1" parent="1">
          <mxGeometry x="383.75" y="2585" width="80" height="80" as="geometry" />
        </mxCell>
        <mxCell id="RCCIjt6ZIgI7EhZnLY2O-7" value="Logs in using regular OAuth2" style="text;html=1;align=center;verticalAlign=middle;resizable=0;points=[];autosize=1;strokeColor=none;fillColor=none;" vertex="1" parent="1">
          <mxGeometry x="113.75" y="2600" width="180" height="30" as="geometry" />
        </mxCell>
        <mxCell id="RCCIjt6ZIgI7EhZnLY2O-8" value="REGISTER" style="rounded=0;whiteSpace=wrap;html=1;" vertex="1" parent="1">
          <mxGeometry x="379.37" y="2880" width="85" height="40" as="geometry" />
        </mxCell>
        <mxCell id="RCCIjt6ZIgI7EhZnLY2O-9" value="" style="shape=partialRectangle;html=1;whiteSpace=wrap;connectable=0;strokeColor=inherit;overflow=hidden;fillColor=none;top=0;left=0;bottom=0;right=0;pointerEvents=1;fontSize=16;" vertex="1" parent="1">
          <mxGeometry x="599.87" y="2918" width="93" height="55" as="geometry">
            <mxRectangle width="93" height="55" as="alternateBounds" />
          </mxGeometry>
        </mxCell>
        <mxCell id="RCCIjt6ZIgI7EhZnLY2O-10" value="Vote Proposal Table" style="shape=table;startSize=30;container=1;collapsible=0;childLayout=tableLayout;" vertex="1" parent="1">
          <mxGeometry x="506.87" y="2810" width="240" height="110" as="geometry" />
        </mxCell>
        <mxCell id="RCCIjt6ZIgI7EhZnLY2O-11" value="" style="shape=tableRow;horizontal=0;startSize=0;swimlaneHead=0;swimlaneBody=0;strokeColor=inherit;top=0;left=0;bottom=0;right=0;collapsible=0;dropTarget=0;fillColor=none;points=[[0,0.5],[1,0.5]];portConstraint=eastwest;" vertex="1" parent="RCCIjt6ZIgI7EhZnLY2O-10">
          <mxGeometry y="30" width="240" height="40" as="geometry" />
        </mxCell>
        <mxCell id="RCCIjt6ZIgI7EhZnLY2O-12" value="proposal id" style="shape=partialRectangle;html=1;whiteSpace=wrap;connectable=0;strokeColor=inherit;overflow=hidden;fillColor=none;top=0;left=0;bottom=0;right=0;pointerEvents=1;" vertex="1" parent="RCCIjt6ZIgI7EhZnLY2O-11">
          <mxGeometry width="60" height="40" as="geometry">
            <mxRectangle width="60" height="40" as="alternateBounds" />
          </mxGeometry>
        </mxCell>
        <mxCell id="RCCIjt6ZIgI7EhZnLY2O-13" value="question" style="shape=partialRectangle;html=1;whiteSpace=wrap;connectable=0;strokeColor=inherit;overflow=hidden;fillColor=none;top=0;left=0;bottom=0;right=0;pointerEvents=1;" vertex="1" parent="RCCIjt6ZIgI7EhZnLY2O-11">
          <mxGeometry x="60" width="60" height="40" as="geometry">
            <mxRectangle width="60" height="40" as="alternateBounds" />
          </mxGeometry>
        </mxCell>
        <mxCell id="RCCIjt6ZIgI7EhZnLY2O-14" value="nonce iss" style="shape=partialRectangle;html=1;whiteSpace=wrap;connectable=0;strokeColor=inherit;overflow=hidden;fillColor=none;top=0;left=0;bottom=0;right=0;pointerEvents=1;" vertex="1" parent="RCCIjt6ZIgI7EhZnLY2O-11">
          <mxGeometry x="120" width="60" height="40" as="geometry">
            <mxRectangle width="60" height="40" as="alternateBounds" />
          </mxGeometry>
        </mxCell>
        <mxCell id="RCCIjt6ZIgI7EhZnLY2O-15" value="nonce vote" style="shape=partialRectangle;html=1;whiteSpace=wrap;connectable=0;strokeColor=inherit;overflow=hidden;fillColor=none;top=0;left=0;bottom=0;right=0;pointerEvents=1;" vertex="1" parent="RCCIjt6ZIgI7EhZnLY2O-11">
          <mxGeometry x="180" width="60" height="40" as="geometry">
            <mxRectangle width="60" height="40" as="alternateBounds" />
          </mxGeometry>
        </mxCell>
        <mxCell id="RCCIjt6ZIgI7EhZnLY2O-16" value="" style="shape=tableRow;horizontal=0;startSize=0;swimlaneHead=0;swimlaneBody=0;strokeColor=inherit;top=0;left=0;bottom=0;right=0;collapsible=0;dropTarget=0;fillColor=none;points=[[0,0.5],[1,0.5]];portConstraint=eastwest;" vertex="1" parent="RCCIjt6ZIgI7EhZnLY2O-10">
          <mxGeometry y="70" width="240" height="40" as="geometry" />
        </mxCell>
        <mxCell id="RCCIjt6ZIgI7EhZnLY2O-17" value="1" style="shape=partialRectangle;html=1;whiteSpace=wrap;connectable=0;strokeColor=inherit;overflow=hidden;fillColor=none;top=0;left=0;bottom=0;right=0;pointerEvents=1;" vertex="1" parent="RCCIjt6ZIgI7EhZnLY2O-16">
          <mxGeometry width="60" height="40" as="geometry">
            <mxRectangle width="60" height="40" as="alternateBounds" />
          </mxGeometry>
        </mxCell>
        <mxCell id="RCCIjt6ZIgI7EhZnLY2O-18" value="Have you ever..." style="shape=partialRectangle;html=1;whiteSpace=wrap;connectable=0;strokeColor=inherit;overflow=hidden;fillColor=none;top=0;left=0;bottom=0;right=0;pointerEvents=1;" vertex="1" parent="RCCIjt6ZIgI7EhZnLY2O-16">
          <mxGeometry x="60" width="60" height="40" as="geometry">
            <mxRectangle width="60" height="40" as="alternateBounds" />
          </mxGeometry>
        </mxCell>
        <mxCell id="RCCIjt6ZIgI7EhZnLY2O-19" value="5" style="shape=partialRectangle;html=1;whiteSpace=wrap;connectable=0;strokeColor=inherit;overflow=hidden;fillColor=none;top=0;left=0;bottom=0;right=0;pointerEvents=1;" vertex="1" parent="RCCIjt6ZIgI7EhZnLY2O-16">
          <mxGeometry x="120" width="60" height="40" as="geometry">
            <mxRectangle width="60" height="40" as="alternateBounds" />
          </mxGeometry>
        </mxCell>
        <mxCell id="RCCIjt6ZIgI7EhZnLY2O-20" value="3" style="shape=partialRectangle;html=1;whiteSpace=wrap;connectable=0;strokeColor=inherit;overflow=hidden;fillColor=none;top=0;left=0;bottom=0;right=0;pointerEvents=1;" vertex="1" parent="RCCIjt6ZIgI7EhZnLY2O-16">
          <mxGeometry x="180" width="60" height="40" as="geometry">
            <mxRectangle width="60" height="40" as="alternateBounds" />
          </mxGeometry>
        </mxCell>
        <mxCell id="RCCIjt6ZIgI7EhZnLY2O-21" value="Alice (Holder)" style="shape=umlActor;verticalLabelPosition=bottom;verticalAlign=top;html=1;outlineConnect=0;" vertex="1" parent="1">
          <mxGeometry x="36.87" y="2840" width="50" height="90" as="geometry" />
        </mxCell>
        <mxCell id="RCCIjt6ZIgI7EhZnLY2O-22" value="&lt;div&gt;issues &lt;br&gt;&lt;/div&gt;&lt;div&gt;onClick&lt;/div&gt;" style="text;html=1;align=center;verticalAlign=middle;resizable=0;points=[];autosize=1;strokeColor=none;fillColor=none;" vertex="1" parent="1">
          <mxGeometry x="321.87" y="2915" width="60" height="40" as="geometry" />
        </mxCell>
        <mxCell id="RCCIjt6ZIgI7EhZnLY2O-23" value="" style="edgeStyle=orthogonalEdgeStyle;rounded=0;orthogonalLoop=1;jettySize=auto;html=1;" edge="1" parent="1" source="RCCIjt6ZIgI7EhZnLY2O-8">
          <mxGeometry relative="1" as="geometry">
            <mxPoint x="379.87" y="2900" as="sourcePoint" />
            <mxPoint x="96.87" y="2900" as="targetPoint" />
            <Array as="points">
              <mxPoint x="146.87" y="2900" />
              <mxPoint x="146.87" y="2900" />
            </Array>
          </mxGeometry>
        </mxCell>
        <mxCell id="RCCIjt6ZIgI7EhZnLY2O-24" value="Proposal Info AnonCred" style="swimlane;fontStyle=0;childLayout=stackLayout;horizontal=1;startSize=30;horizontalStack=0;resizeParent=1;resizeParentMax=0;resizeLast=0;collapsible=1;marginBottom=0;whiteSpace=wrap;html=1;fillColor=default;" vertex="1" parent="1">
          <mxGeometry x="166.87" y="2795" width="150" height="180" as="geometry" />
        </mxCell>
        <mxCell id="RCCIjt6ZIgI7EhZnLY2O-25" value="Proposal ID: 1" style="text;strokeColor=none;fillColor=default;align=left;verticalAlign=middle;spacingLeft=4;spacingRight=4;overflow=hidden;points=[[0,0.5],[1,0.5]];portConstraint=eastwest;rotatable=0;whiteSpace=wrap;html=1;" vertex="1" parent="RCCIjt6ZIgI7EhZnLY2O-24">
          <mxGeometry y="30" width="150" height="30" as="geometry" />
        </mxCell>
        <mxCell id="RCCIjt6ZIgI7EhZnLY2O-26" value="&lt;div&gt;Nonce ISS: 5&lt;/div&gt;" style="text;strokeColor=none;fillColor=default;align=left;verticalAlign=middle;spacingLeft=4;spacingRight=4;overflow=hidden;points=[[0,0.5],[1,0.5]];portConstraint=eastwest;rotatable=0;whiteSpace=wrap;html=1;" vertex="1" parent="RCCIjt6ZIgI7EhZnLY2O-24">
          <mxGeometry y="60" width="150" height="30" as="geometry" />
        </mxCell>
        <mxCell id="RCCIjt6ZIgI7EhZnLY2O-27" value="Nonce Vote: 3" style="text;strokeColor=none;fillColor=default;align=left;verticalAlign=middle;spacingLeft=4;spacingRight=4;overflow=hidden;points=[[0,0.5],[1,0.5]];portConstraint=eastwest;rotatable=0;whiteSpace=wrap;html=1;" vertex="1" parent="RCCIjt6ZIgI7EhZnLY2O-24">
          <mxGeometry y="90" width="150" height="30" as="geometry" />
        </mxCell>
        <mxCell id="RCCIjt6ZIgI7EhZnLY2O-28" value="Secret (blinded when signing): &lt;b&gt;48294&lt;/b&gt;" style="text;strokeColor=none;fillColor=default;align=left;verticalAlign=middle;spacingLeft=4;spacingRight=4;overflow=hidden;points=[[0,0.5],[1,0.5]];portConstraint=eastwest;rotatable=0;whiteSpace=wrap;html=1;" vertex="1" parent="RCCIjt6ZIgI7EhZnLY2O-24">
          <mxGeometry y="120" width="150" height="30" as="geometry" />
        </mxCell>
        <mxCell id="RCCIjt6ZIgI7EhZnLY2O-29" value="&lt;div&gt;Signature: Privency&lt;/div&gt;" style="text;strokeColor=none;fillColor=default;align=left;verticalAlign=middle;spacingLeft=4;spacingRight=4;overflow=hidden;points=[[0,0.5],[1,0.5]];portConstraint=eastwest;rotatable=0;whiteSpace=wrap;html=1;" vertex="1" parent="RCCIjt6ZIgI7EhZnLY2O-24">
          <mxGeometry y="150" width="150" height="30" as="geometry" />
        </mxCell>
        <mxCell id="RCCIjt6ZIgI7EhZnLY2O-30" value="User Table" style="shape=table;startSize=30;container=1;collapsible=0;childLayout=tableLayout;" vertex="1" parent="1">
          <mxGeometry x="478.75" y="2550" width="310" height="130" as="geometry" />
        </mxCell>
        <mxCell id="RCCIjt6ZIgI7EhZnLY2O-31" value="" style="shape=tableRow;horizontal=0;startSize=0;swimlaneHead=0;swimlaneBody=0;strokeColor=inherit;top=0;left=0;bottom=0;right=0;collapsible=0;dropTarget=0;fillColor=none;points=[[0,0.5],[1,0.5]];portConstraint=eastwest;" vertex="1" parent="RCCIjt6ZIgI7EhZnLY2O-30">
          <mxGeometry y="30" width="310" height="33" as="geometry" />
        </mxCell>
        <mxCell id="RCCIjt6ZIgI7EhZnLY2O-32" value="User Id" style="shape=partialRectangle;html=1;whiteSpace=wrap;connectable=0;strokeColor=inherit;overflow=hidden;fillColor=none;top=0;left=0;bottom=0;right=0;pointerEvents=1;" vertex="1" parent="RCCIjt6ZIgI7EhZnLY2O-31">
          <mxGeometry width="102" height="33" as="geometry">
            <mxRectangle width="102" height="33" as="alternateBounds" />
          </mxGeometry>
        </mxCell>
        <mxCell id="RCCIjt6ZIgI7EhZnLY2O-33" value="Handle" style="shape=partialRectangle;html=1;whiteSpace=wrap;connectable=0;strokeColor=inherit;overflow=hidden;fillColor=none;top=0;left=0;bottom=0;right=0;pointerEvents=1;" vertex="1" parent="RCCIjt6ZIgI7EhZnLY2O-31">
          <mxGeometry x="102" width="106" height="33" as="geometry">
            <mxRectangle width="106" height="33" as="alternateBounds" />
          </mxGeometry>
        </mxCell>
        <mxCell id="RCCIjt6ZIgI7EhZnLY2O-34" value="Email" style="shape=partialRectangle;html=1;whiteSpace=wrap;connectable=0;strokeColor=inherit;overflow=hidden;fillColor=none;top=0;left=0;bottom=0;right=0;pointerEvents=1;" vertex="1" parent="RCCIjt6ZIgI7EhZnLY2O-31">
          <mxGeometry x="208" width="102" height="33" as="geometry">
            <mxRectangle width="102" height="33" as="alternateBounds" />
          </mxGeometry>
        </mxCell>
        <mxCell id="RCCIjt6ZIgI7EhZnLY2O-35" value="" style="shape=tableRow;horizontal=0;startSize=0;swimlaneHead=0;swimlaneBody=0;strokeColor=inherit;top=0;left=0;bottom=0;right=0;collapsible=0;dropTarget=0;fillColor=none;points=[[0,0.5],[1,0.5]];portConstraint=eastwest;" vertex="1" parent="RCCIjt6ZIgI7EhZnLY2O-30">
          <mxGeometry y="63" width="310" height="34" as="geometry" />
        </mxCell>
        <mxCell id="RCCIjt6ZIgI7EhZnLY2O-36" value="1" style="shape=partialRectangle;html=1;whiteSpace=wrap;connectable=0;strokeColor=inherit;overflow=hidden;fillColor=none;top=0;left=0;bottom=0;right=0;pointerEvents=1;" vertex="1" parent="RCCIjt6ZIgI7EhZnLY2O-35">
          <mxGeometry width="102" height="34" as="geometry">
            <mxRectangle width="102" height="34" as="alternateBounds" />
          </mxGeometry>
        </mxCell>
        <mxCell id="RCCIjt6ZIgI7EhZnLY2O-37" value="bob" style="shape=partialRectangle;html=1;whiteSpace=wrap;connectable=0;strokeColor=inherit;overflow=hidden;fillColor=none;top=0;left=0;bottom=0;right=0;pointerEvents=1;" vertex="1" parent="RCCIjt6ZIgI7EhZnLY2O-35">
          <mxGeometry x="102" width="106" height="34" as="geometry">
            <mxRectangle width="106" height="34" as="alternateBounds" />
          </mxGeometry>
        </mxCell>
        <mxCell id="RCCIjt6ZIgI7EhZnLY2O-38" value="bob@acme.com" style="shape=partialRectangle;html=1;whiteSpace=wrap;connectable=0;strokeColor=inherit;overflow=hidden;fillColor=none;top=0;left=0;bottom=0;right=0;pointerEvents=1;" vertex="1" parent="RCCIjt6ZIgI7EhZnLY2O-35">
          <mxGeometry x="208" width="102" height="34" as="geometry">
            <mxRectangle width="102" height="34" as="alternateBounds" />
          </mxGeometry>
        </mxCell>
        <mxCell id="RCCIjt6ZIgI7EhZnLY2O-39" value="" style="shape=tableRow;horizontal=0;startSize=0;swimlaneHead=0;swimlaneBody=0;strokeColor=inherit;top=0;left=0;bottom=0;right=0;collapsible=0;dropTarget=0;fillColor=none;points=[[0,0.5],[1,0.5]];portConstraint=eastwest;" vertex="1" parent="RCCIjt6ZIgI7EhZnLY2O-30">
          <mxGeometry y="97" width="310" height="33" as="geometry" />
        </mxCell>
        <mxCell id="RCCIjt6ZIgI7EhZnLY2O-40" value="2" style="shape=partialRectangle;html=1;whiteSpace=wrap;connectable=0;strokeColor=inherit;overflow=hidden;fillColor=none;top=0;left=0;bottom=0;right=0;pointerEvents=1;fontStyle=1" vertex="1" parent="RCCIjt6ZIgI7EhZnLY2O-39">
          <mxGeometry width="102" height="33" as="geometry">
            <mxRectangle width="102" height="33" as="alternateBounds" />
          </mxGeometry>
        </mxCell>
        <mxCell id="RCCIjt6ZIgI7EhZnLY2O-41" value="alice" style="shape=partialRectangle;html=1;whiteSpace=wrap;connectable=0;strokeColor=inherit;overflow=hidden;fillColor=none;top=0;left=0;bottom=0;right=0;pointerEvents=1;fontStyle=1" vertex="1" parent="RCCIjt6ZIgI7EhZnLY2O-39">
          <mxGeometry x="102" width="106" height="33" as="geometry">
            <mxRectangle width="106" height="33" as="alternateBounds" />
          </mxGeometry>
        </mxCell>
        <mxCell id="RCCIjt6ZIgI7EhZnLY2O-42" value="alice@acme.com" style="shape=partialRectangle;html=1;whiteSpace=wrap;connectable=0;strokeColor=inherit;overflow=hidden;fillColor=none;top=0;left=0;bottom=0;right=0;pointerEvents=1;fontStyle=1" vertex="1" parent="RCCIjt6ZIgI7EhZnLY2O-39">
          <mxGeometry x="208" width="102" height="33" as="geometry">
            <mxRectangle width="102" height="33" as="alternateBounds" />
          </mxGeometry>
        </mxCell>
        <mxCell id="RCCIjt6ZIgI7EhZnLY2O-43" style="edgeStyle=orthogonalEdgeStyle;rounded=0;orthogonalLoop=1;jettySize=auto;html=1;" edge="1" parent="1" source="RCCIjt6ZIgI7EhZnLY2O-44" target="RCCIjt6ZIgI7EhZnLY2O-45">
          <mxGeometry relative="1" as="geometry" />
        </mxCell>
        <mxCell id="RCCIjt6ZIgI7EhZnLY2O-44" value="Alice (Holder)" style="shape=umlActor;verticalLabelPosition=bottom;verticalAlign=top;html=1;outlineConnect=0;" vertex="1" parent="1">
          <mxGeometry x="29.999999999999996" y="3047" width="50" height="90" as="geometry" />
        </mxCell>
        <mxCell id="RCCIjt6ZIgI7EhZnLY2O-45" value="Privency (Verifier)" style="shape=umlActor;verticalLabelPosition=bottom;verticalAlign=top;html=1;outlineConnect=0;" vertex="1" parent="1">
          <mxGeometry x="407.5" y="3047" width="50" height="90" as="geometry" />
        </mxCell>
        <mxCell id="RCCIjt6ZIgI7EhZnLY2O-46" value="presents" style="text;html=1;align=center;verticalAlign=middle;resizable=0;points=[];autosize=1;strokeColor=none;fillColor=none;" vertex="1" parent="1">
          <mxGeometry x="72.5" y="3095" width="70" height="30" as="geometry" />
        </mxCell>
        <mxCell id="RCCIjt6ZIgI7EhZnLY2O-47" value="Proposal Hash Presentation" style="swimlane;fontStyle=0;childLayout=stackLayout;horizontal=1;startSize=30;horizontalStack=0;resizeParent=1;resizeParentMax=0;resizeLast=0;collapsible=1;marginBottom=0;whiteSpace=wrap;html=1;fillColor=default;" vertex="1" parent="1">
          <mxGeometry x="142.5" y="3020" width="200" height="210" as="geometry" />
        </mxCell>
        <mxCell id="RCCIjt6ZIgI7EhZnLY2O-48" value="Proposal ID: 1" style="text;strokeColor=none;fillColor=default;align=left;verticalAlign=middle;spacingLeft=4;spacingRight=4;overflow=hidden;points=[[0,0.5],[1,0.5]];portConstraint=eastwest;rotatable=0;whiteSpace=wrap;html=1;" vertex="1" parent="RCCIjt6ZIgI7EhZnLY2O-47">
          <mxGeometry y="30" width="200" height="30" as="geometry" />
        </mxCell>
        <mxCell id="RCCIjt6ZIgI7EhZnLY2O-49" value="&lt;div&gt;Hash_Secret (Secret + Nonce &lt;b&gt;ISS&lt;/b&gt;): hash(48294+5)=&lt;b&gt;qzkdf9&lt;/b&gt;&lt;/div&gt;" style="text;strokeColor=none;fillColor=default;align=left;verticalAlign=middle;spacingLeft=4;spacingRight=4;overflow=hidden;points=[[0,0.5],[1,0.5]];portConstraint=eastwest;rotatable=0;whiteSpace=wrap;html=1;" vertex="1" parent="RCCIjt6ZIgI7EhZnLY2O-47">
          <mxGeometry y="60" width="200" height="50" as="geometry" />
        </mxCell>
        <mxCell id="RCCIjt6ZIgI7EhZnLY2O-50" value="Hash_ID (ACME Unique ID + Nonce ISS): hash(121A+5)=&lt;b&gt;bskjdf98&lt;/b&gt;" style="text;strokeColor=none;fillColor=default;align=left;verticalAlign=middle;spacingLeft=4;spacingRight=4;overflow=hidden;points=[[0,0.5],[1,0.5]];portConstraint=eastwest;rotatable=0;whiteSpace=wrap;html=1;" vertex="1" parent="RCCIjt6ZIgI7EhZnLY2O-47">
          <mxGeometry y="110" width="200" height="50" as="geometry" />
        </mxCell>
        <mxCell id="RCCIjt6ZIgI7EhZnLY2O-51" value="&lt;div&gt;Proofs, non revocation&lt;br&gt;&lt;/div&gt;" style="text;strokeColor=none;fillColor=default;align=left;verticalAlign=middle;spacingLeft=4;spacingRight=4;overflow=hidden;points=[[0,0.5],[1,0.5]];portConstraint=eastwest;rotatable=0;whiteSpace=wrap;html=1;" vertex="1" parent="RCCIjt6ZIgI7EhZnLY2O-47">
          <mxGeometry y="160" width="200" height="50" as="geometry" />
        </mxCell>
        <mxCell id="RCCIjt6ZIgI7EhZnLY2O-52" value="&lt;div&gt;matches with&amp;nbsp;&lt;/div&gt;&lt;div&gt;alice existing&amp;nbsp;&lt;span style=&quot;background-color: initial;&quot;&gt;row&lt;/span&gt;&lt;/div&gt;" style="text;html=1;align=center;verticalAlign=middle;resizable=0;points=[];autosize=1;strokeColor=none;fillColor=none;" vertex="1" parent="1">
          <mxGeometry x="770" y="3130" width="110" height="40" as="geometry" />
        </mxCell>
        <mxCell id="RCCIjt6ZIgI7EhZnLY2O-53" value="Proposal Hash Table" style="shape=table;startSize=30;container=1;collapsible=0;childLayout=tableLayout;" vertex="1" parent="1">
          <mxGeometry x="530" y="3020" width="240" height="150" as="geometry" />
        </mxCell>
        <mxCell id="RCCIjt6ZIgI7EhZnLY2O-54" value="" style="shape=tableRow;horizontal=0;startSize=0;swimlaneHead=0;swimlaneBody=0;strokeColor=inherit;top=0;left=0;bottom=0;right=0;collapsible=0;dropTarget=0;fillColor=none;points=[[0,0.5],[1,0.5]];portConstraint=eastwest;" vertex="1" parent="RCCIjt6ZIgI7EhZnLY2O-53">
          <mxGeometry y="30" width="240" height="40" as="geometry" />
        </mxCell>
        <mxCell id="RCCIjt6ZIgI7EhZnLY2O-55" value="proposal id" style="shape=partialRectangle;html=1;whiteSpace=wrap;connectable=0;strokeColor=inherit;overflow=hidden;fillColor=none;top=0;left=0;bottom=0;right=0;pointerEvents=1;" vertex="1" parent="RCCIjt6ZIgI7EhZnLY2O-54">
          <mxGeometry width="60" height="40" as="geometry">
            <mxRectangle width="60" height="40" as="alternateBounds" />
          </mxGeometry>
        </mxCell>
        <mxCell id="RCCIjt6ZIgI7EhZnLY2O-56" value="user id" style="shape=partialRectangle;html=1;whiteSpace=wrap;connectable=0;strokeColor=inherit;overflow=hidden;fillColor=none;top=0;left=0;bottom=0;right=0;pointerEvents=1;" vertex="1" parent="RCCIjt6ZIgI7EhZnLY2O-54">
          <mxGeometry x="60" width="60" height="40" as="geometry">
            <mxRectangle width="60" height="40" as="alternateBounds" />
          </mxGeometry>
        </mxCell>
        <mxCell id="RCCIjt6ZIgI7EhZnLY2O-57" value="hash secret" style="shape=partialRectangle;html=1;whiteSpace=wrap;connectable=0;strokeColor=inherit;overflow=hidden;fillColor=none;top=0;left=0;bottom=0;right=0;pointerEvents=1;" vertex="1" parent="RCCIjt6ZIgI7EhZnLY2O-54">
          <mxGeometry x="120" width="60" height="40" as="geometry">
            <mxRectangle width="60" height="40" as="alternateBounds" />
          </mxGeometry>
        </mxCell>
        <mxCell id="RCCIjt6ZIgI7EhZnLY2O-58" value="hash id" style="shape=partialRectangle;html=1;whiteSpace=wrap;connectable=0;strokeColor=inherit;overflow=hidden;fillColor=none;top=0;left=0;bottom=0;right=0;pointerEvents=1;" vertex="1" parent="RCCIjt6ZIgI7EhZnLY2O-54">
          <mxGeometry x="180" width="60" height="40" as="geometry">
            <mxRectangle width="60" height="40" as="alternateBounds" />
          </mxGeometry>
        </mxCell>
        <mxCell id="RCCIjt6ZIgI7EhZnLY2O-59" value="" style="shape=tableRow;horizontal=0;startSize=0;swimlaneHead=0;swimlaneBody=0;strokeColor=inherit;top=0;left=0;bottom=0;right=0;collapsible=0;dropTarget=0;fillColor=none;points=[[0,0.5],[1,0.5]];portConstraint=eastwest;" vertex="1" parent="RCCIjt6ZIgI7EhZnLY2O-53">
          <mxGeometry y="70" width="240" height="40" as="geometry" />
        </mxCell>
        <mxCell id="RCCIjt6ZIgI7EhZnLY2O-60" value="1" style="shape=partialRectangle;html=1;whiteSpace=wrap;connectable=0;strokeColor=inherit;overflow=hidden;fillColor=none;top=0;left=0;bottom=0;right=0;pointerEvents=1;" vertex="1" parent="RCCIjt6ZIgI7EhZnLY2O-59">
          <mxGeometry width="60" height="40" as="geometry">
            <mxRectangle width="60" height="40" as="alternateBounds" />
          </mxGeometry>
        </mxCell>
        <mxCell id="RCCIjt6ZIgI7EhZnLY2O-61" value="1" style="shape=partialRectangle;html=1;whiteSpace=wrap;connectable=0;strokeColor=inherit;overflow=hidden;fillColor=none;top=0;left=0;bottom=0;right=0;pointerEvents=1;" vertex="1" parent="RCCIjt6ZIgI7EhZnLY2O-59">
          <mxGeometry x="60" width="60" height="40" as="geometry">
            <mxRectangle width="60" height="40" as="alternateBounds" />
          </mxGeometry>
        </mxCell>
        <mxCell id="RCCIjt6ZIgI7EhZnLY2O-62" value="dslfj3" style="shape=partialRectangle;html=1;whiteSpace=wrap;connectable=0;strokeColor=inherit;overflow=hidden;fillColor=none;top=0;left=0;bottom=0;right=0;pointerEvents=1;" vertex="1" parent="RCCIjt6ZIgI7EhZnLY2O-59">
          <mxGeometry x="120" width="60" height="40" as="geometry">
            <mxRectangle width="60" height="40" as="alternateBounds" />
          </mxGeometry>
        </mxCell>
        <mxCell id="RCCIjt6ZIgI7EhZnLY2O-63" value="93idlkj" style="shape=partialRectangle;html=1;whiteSpace=wrap;connectable=0;strokeColor=inherit;overflow=hidden;fillColor=none;top=0;left=0;bottom=0;right=0;pointerEvents=1;" vertex="1" parent="RCCIjt6ZIgI7EhZnLY2O-59">
          <mxGeometry x="180" width="60" height="40" as="geometry">
            <mxRectangle width="60" height="40" as="alternateBounds" />
          </mxGeometry>
        </mxCell>
        <mxCell id="RCCIjt6ZIgI7EhZnLY2O-64" value="" style="shape=tableRow;horizontal=0;startSize=0;swimlaneHead=0;swimlaneBody=0;strokeColor=inherit;top=0;left=0;bottom=0;right=0;collapsible=0;dropTarget=0;fillColor=none;points=[[0,0.5],[1,0.5]];portConstraint=eastwest;" vertex="1" parent="RCCIjt6ZIgI7EhZnLY2O-53">
          <mxGeometry y="110" width="240" height="40" as="geometry" />
        </mxCell>
        <mxCell id="RCCIjt6ZIgI7EhZnLY2O-65" value="1" style="shape=partialRectangle;html=1;whiteSpace=wrap;connectable=0;strokeColor=inherit;overflow=hidden;fillColor=none;top=0;left=0;bottom=0;right=0;pointerEvents=1;fontStyle=1" vertex="1" parent="RCCIjt6ZIgI7EhZnLY2O-64">
          <mxGeometry width="60" height="40" as="geometry">
            <mxRectangle width="60" height="40" as="alternateBounds" />
          </mxGeometry>
        </mxCell>
        <mxCell id="RCCIjt6ZIgI7EhZnLY2O-66" value="2" style="shape=partialRectangle;html=1;whiteSpace=wrap;connectable=0;strokeColor=inherit;overflow=hidden;fillColor=none;top=0;left=0;bottom=0;right=0;pointerEvents=1;fontStyle=1" vertex="1" parent="RCCIjt6ZIgI7EhZnLY2O-64">
          <mxGeometry x="60" width="60" height="40" as="geometry">
            <mxRectangle width="60" height="40" as="alternateBounds" />
          </mxGeometry>
        </mxCell>
        <mxCell id="RCCIjt6ZIgI7EhZnLY2O-67" value="qzkdf9" style="shape=partialRectangle;html=1;whiteSpace=wrap;connectable=0;strokeColor=inherit;overflow=hidden;fillColor=none;top=0;left=0;bottom=0;right=0;pointerEvents=1;fontStyle=1" vertex="1" parent="RCCIjt6ZIgI7EhZnLY2O-64">
          <mxGeometry x="120" width="60" height="40" as="geometry">
            <mxRectangle width="60" height="40" as="alternateBounds" />
          </mxGeometry>
        </mxCell>
        <mxCell id="RCCIjt6ZIgI7EhZnLY2O-68" value="bskjdf98" style="shape=partialRectangle;html=1;whiteSpace=wrap;connectable=0;strokeColor=inherit;overflow=hidden;fillColor=none;top=0;left=0;bottom=0;right=0;pointerEvents=1;fontStyle=1" vertex="1" parent="RCCIjt6ZIgI7EhZnLY2O-64">
          <mxGeometry x="180" width="60" height="40" as="geometry">
            <mxRectangle width="60" height="40" as="alternateBounds" />
          </mxGeometry>
        </mxCell>
        <mxCell id="RCCIjt6ZIgI7EhZnLY2O-70" value="Alice (Holder)" style="shape=umlActor;verticalLabelPosition=bottom;verticalAlign=top;html=1;outlineConnect=0;" vertex="1" parent="1">
          <mxGeometry x="36.87" y="3380" width="50" height="90" as="geometry" />
        </mxCell>
        <mxCell id="RCCIjt6ZIgI7EhZnLY2O-71" style="edgeStyle=orthogonalEdgeStyle;rounded=0;orthogonalLoop=1;jettySize=auto;html=1;" edge="1" parent="1" source="RCCIjt6ZIgI7EhZnLY2O-72">
          <mxGeometry relative="1" as="geometry">
            <mxPoint x="101.87" y="3450" as="targetPoint" />
            <Array as="points">
              <mxPoint x="371.87" y="3450" />
              <mxPoint x="371.87" y="3450" />
            </Array>
          </mxGeometry>
        </mxCell>
        <mxCell id="RCCIjt6ZIgI7EhZnLY2O-72" value="Privency (Issuer)" style="shape=umlActor;verticalLabelPosition=bottom;verticalAlign=top;html=1;outlineConnect=0;" vertex="1" parent="1">
          <mxGeometry x="461.87" y="3410" width="50" height="90" as="geometry" />
        </mxCell>
        <mxCell id="RCCIjt6ZIgI7EhZnLY2O-86" value="&lt;div&gt;the row above matches,&amp;nbsp;&lt;/div&gt;&lt;div&gt;so Privency revokes&amp;nbsp;&lt;/div&gt;&lt;div&gt;the old AnonCred,&lt;/div&gt;&lt;div&gt;and send Alice a new one&lt;/div&gt;" style="text;html=1;align=center;verticalAlign=middle;resizable=0;points=[];autosize=1;strokeColor=none;fillColor=none;" vertex="1" parent="1">
          <mxGeometry x="286.87" y="3400" width="160" height="70" as="geometry" />
        </mxCell>
        <mxCell id="RCCIjt6ZIgI7EhZnLY2O-94" value="anyone having this type of AnonCred can vote" style="text;html=1;align=center;verticalAlign=middle;resizable=0;points=[];autosize=1;strokeColor=none;fillColor=none;" vertex="1" parent="1">
          <mxGeometry x="86.87" y="3580" width="270" height="30" as="geometry" />
        </mxCell>
        <mxCell id="RCCIjt6ZIgI7EhZnLY2O-100" value="Proposal Vote AnonCred" style="swimlane;fontStyle=1;childLayout=stackLayout;horizontal=1;startSize=30;horizontalStack=0;resizeParent=1;resizeParentMax=0;resizeLast=0;collapsible=1;marginBottom=0;whiteSpace=wrap;html=1;fillColor=default;" vertex="1" parent="1">
          <mxGeometry x="136.87" y="3300" width="150" height="310" as="geometry" />
        </mxCell>
        <mxCell id="RCCIjt6ZIgI7EhZnLY2O-197" value="AnonCred ID: &lt;b&gt;2&lt;/b&gt;" style="text;strokeColor=none;fillColor=default;align=left;verticalAlign=middle;spacingLeft=4;spacingRight=4;overflow=hidden;points=[[0,0.5],[1,0.5]];portConstraint=eastwest;rotatable=0;whiteSpace=wrap;html=1;" vertex="1" parent="RCCIjt6ZIgI7EhZnLY2O-100">
          <mxGeometry y="30" width="150" height="30" as="geometry" />
        </mxCell>
        <mxCell id="RCCIjt6ZIgI7EhZnLY2O-196" value="Proposal ID: 1" style="text;strokeColor=none;fillColor=default;align=left;verticalAlign=middle;spacingLeft=4;spacingRight=4;overflow=hidden;points=[[0,0.5],[1,0.5]];portConstraint=eastwest;rotatable=0;whiteSpace=wrap;html=1;" vertex="1" parent="RCCIjt6ZIgI7EhZnLY2O-100">
          <mxGeometry y="60" width="150" height="30" as="geometry" />
        </mxCell>
        <mxCell id="RCCIjt6ZIgI7EhZnLY2O-102" value="&lt;div&gt;Nonce ISS: 5&lt;/div&gt;" style="text;strokeColor=none;fillColor=default;align=left;verticalAlign=middle;spacingLeft=4;spacingRight=4;overflow=hidden;points=[[0,0.5],[1,0.5]];portConstraint=eastwest;rotatable=0;whiteSpace=wrap;html=1;" vertex="1" parent="RCCIjt6ZIgI7EhZnLY2O-100">
          <mxGeometry y="90" width="150" height="30" as="geometry" />
        </mxCell>
        <mxCell id="RCCIjt6ZIgI7EhZnLY2O-103" value="Nonce Vote: 3" style="text;strokeColor=none;fillColor=default;align=left;verticalAlign=middle;spacingLeft=4;spacingRight=4;overflow=hidden;points=[[0,0.5],[1,0.5]];portConstraint=eastwest;rotatable=0;whiteSpace=wrap;html=1;" vertex="1" parent="RCCIjt6ZIgI7EhZnLY2O-100">
          <mxGeometry y="120" width="150" height="30" as="geometry" />
        </mxCell>
        <mxCell id="RCCIjt6ZIgI7EhZnLY2O-104" value="Secret (blinded when signing): 48294" style="text;strokeColor=none;fillColor=default;align=left;verticalAlign=middle;spacingLeft=4;spacingRight=4;overflow=hidden;points=[[0,0.5],[1,0.5]];portConstraint=eastwest;rotatable=0;whiteSpace=wrap;html=1;" vertex="1" parent="RCCIjt6ZIgI7EhZnLY2O-100">
          <mxGeometry y="150" width="150" height="30" as="geometry" />
        </mxCell>
        <mxCell id="RCCIjt6ZIgI7EhZnLY2O-105" value="Hash_Secret (Secret + Nonce ISS): hash(48294+5)" style="text;strokeColor=none;fillColor=default;align=left;verticalAlign=middle;spacingLeft=4;spacingRight=4;overflow=hidden;points=[[0,0.5],[1,0.5]];portConstraint=eastwest;rotatable=0;whiteSpace=wrap;html=1;" vertex="1" parent="RCCIjt6ZIgI7EhZnLY2O-100">
          <mxGeometry y="180" width="150" height="50" as="geometry" />
        </mxCell>
        <mxCell id="RCCIjt6ZIgI7EhZnLY2O-106" value="Hash_ID (ACME Unique ID + Nonce ISS): hash(121A+5)" style="text;strokeColor=none;fillColor=default;align=left;verticalAlign=middle;spacingLeft=4;spacingRight=4;overflow=hidden;points=[[0,0.5],[1,0.5]];portConstraint=eastwest;rotatable=0;whiteSpace=wrap;html=1;" vertex="1" parent="RCCIjt6ZIgI7EhZnLY2O-100">
          <mxGeometry y="230" width="150" height="50" as="geometry" />
        </mxCell>
        <mxCell id="RCCIjt6ZIgI7EhZnLY2O-107" value="&lt;div&gt;Signature: Privency&lt;/div&gt;" style="text;strokeColor=none;fillColor=default;align=left;verticalAlign=middle;spacingLeft=4;spacingRight=4;overflow=hidden;points=[[0,0.5],[1,0.5]];portConstraint=eastwest;rotatable=0;whiteSpace=wrap;html=1;" vertex="1" parent="RCCIjt6ZIgI7EhZnLY2O-100">
          <mxGeometry y="280" width="150" height="30" as="geometry" />
        </mxCell>
        <mxCell id="RCCIjt6ZIgI7EhZnLY2O-108" value="AnonCred Table (standard revocation)" style="shape=table;startSize=30;container=1;collapsible=0;childLayout=tableLayout;" vertex="1" parent="1">
          <mxGeometry x="521.87" y="3380" width="270" height="190" as="geometry" />
        </mxCell>
        <mxCell id="RCCIjt6ZIgI7EhZnLY2O-109" value="" style="shape=tableRow;horizontal=0;startSize=0;swimlaneHead=0;swimlaneBody=0;strokeColor=inherit;top=0;left=0;bottom=0;right=0;collapsible=0;dropTarget=0;fillColor=none;points=[[0,0.5],[1,0.5]];portConstraint=eastwest;" vertex="1" parent="RCCIjt6ZIgI7EhZnLY2O-108">
          <mxGeometry y="30" width="270" height="40" as="geometry" />
        </mxCell>
        <mxCell id="RCCIjt6ZIgI7EhZnLY2O-110" value="user id" style="shape=partialRectangle;html=1;whiteSpace=wrap;connectable=0;strokeColor=inherit;overflow=hidden;fillColor=none;top=0;left=0;bottom=0;right=0;pointerEvents=1;" vertex="1" parent="RCCIjt6ZIgI7EhZnLY2O-109">
          <mxGeometry width="90" height="40" as="geometry">
            <mxRectangle width="90" height="40" as="alternateBounds" />
          </mxGeometry>
        </mxCell>
        <mxCell id="RCCIjt6ZIgI7EhZnLY2O-111" value="anoncred" style="shape=partialRectangle;html=1;whiteSpace=wrap;connectable=0;strokeColor=inherit;overflow=hidden;fillColor=none;top=0;left=0;bottom=0;right=0;pointerEvents=1;" vertex="1" parent="RCCIjt6ZIgI7EhZnLY2O-109">
          <mxGeometry x="90" width="90" height="40" as="geometry">
            <mxRectangle width="90" height="40" as="alternateBounds" />
          </mxGeometry>
        </mxCell>
        <mxCell id="RCCIjt6ZIgI7EhZnLY2O-112" value="revocation status" style="shape=partialRectangle;html=1;whiteSpace=wrap;connectable=0;strokeColor=inherit;overflow=hidden;fillColor=none;top=0;left=0;bottom=0;right=0;pointerEvents=1;" vertex="1" parent="RCCIjt6ZIgI7EhZnLY2O-109">
          <mxGeometry x="180" width="90" height="40" as="geometry">
            <mxRectangle width="90" height="40" as="alternateBounds" />
          </mxGeometry>
        </mxCell>
        <mxCell id="RCCIjt6ZIgI7EhZnLY2O-113" value="" style="shape=tableRow;horizontal=0;startSize=0;swimlaneHead=0;swimlaneBody=0;strokeColor=inherit;top=0;left=0;bottom=0;right=0;collapsible=0;dropTarget=0;fillColor=none;points=[[0,0.5],[1,0.5]];portConstraint=eastwest;" vertex="1" parent="RCCIjt6ZIgI7EhZnLY2O-108">
          <mxGeometry y="70" width="270" height="40" as="geometry" />
        </mxCell>
        <mxCell id="RCCIjt6ZIgI7EhZnLY2O-114" value="1" style="shape=partialRectangle;html=1;whiteSpace=wrap;connectable=0;strokeColor=inherit;overflow=hidden;fillColor=none;top=0;left=0;bottom=0;right=0;pointerEvents=1;" vertex="1" parent="RCCIjt6ZIgI7EhZnLY2O-113">
          <mxGeometry width="90" height="40" as="geometry">
            <mxRectangle width="90" height="40" as="alternateBounds" />
          </mxGeometry>
        </mxCell>
        <mxCell id="RCCIjt6ZIgI7EhZnLY2O-115" value="1" style="shape=partialRectangle;html=1;whiteSpace=wrap;connectable=0;strokeColor=inherit;overflow=hidden;fillColor=none;top=0;left=0;bottom=0;right=0;pointerEvents=1;" vertex="1" parent="RCCIjt6ZIgI7EhZnLY2O-113">
          <mxGeometry x="90" width="90" height="40" as="geometry">
            <mxRectangle width="90" height="40" as="alternateBounds" />
          </mxGeometry>
        </mxCell>
        <mxCell id="RCCIjt6ZIgI7EhZnLY2O-116" value="revoked" style="shape=partialRectangle;html=1;whiteSpace=wrap;connectable=0;strokeColor=inherit;overflow=hidden;fillColor=none;top=0;left=0;bottom=0;right=0;pointerEvents=1;" vertex="1" parent="RCCIjt6ZIgI7EhZnLY2O-113">
          <mxGeometry x="180" width="90" height="40" as="geometry">
            <mxRectangle width="90" height="40" as="alternateBounds" />
          </mxGeometry>
        </mxCell>
        <mxCell id="RCCIjt6ZIgI7EhZnLY2O-117" value="" style="shape=tableRow;horizontal=0;startSize=0;swimlaneHead=0;swimlaneBody=0;strokeColor=inherit;top=0;left=0;bottom=0;right=0;collapsible=0;dropTarget=0;fillColor=none;points=[[0,0.5],[1,0.5]];portConstraint=eastwest;" vertex="1" parent="RCCIjt6ZIgI7EhZnLY2O-108">
          <mxGeometry y="110" width="270" height="40" as="geometry" />
        </mxCell>
        <mxCell id="RCCIjt6ZIgI7EhZnLY2O-118" value="2" style="shape=partialRectangle;html=1;whiteSpace=wrap;connectable=0;strokeColor=inherit;overflow=hidden;fillColor=none;top=0;left=0;bottom=0;right=0;pointerEvents=1;" vertex="1" parent="RCCIjt6ZIgI7EhZnLY2O-117">
          <mxGeometry width="90" height="40" as="geometry">
            <mxRectangle width="90" height="40" as="alternateBounds" />
          </mxGeometry>
        </mxCell>
        <mxCell id="RCCIjt6ZIgI7EhZnLY2O-119" value="1" style="shape=partialRectangle;html=1;whiteSpace=wrap;connectable=0;strokeColor=inherit;overflow=hidden;fillColor=none;top=0;left=0;bottom=0;right=0;pointerEvents=1;" vertex="1" parent="RCCIjt6ZIgI7EhZnLY2O-117">
          <mxGeometry x="90" width="90" height="40" as="geometry">
            <mxRectangle width="90" height="40" as="alternateBounds" />
          </mxGeometry>
        </mxCell>
        <mxCell id="RCCIjt6ZIgI7EhZnLY2O-120" value="revoked" style="shape=partialRectangle;html=1;whiteSpace=wrap;connectable=0;strokeColor=inherit;overflow=hidden;fillColor=none;top=0;left=0;bottom=0;right=0;pointerEvents=1;" vertex="1" parent="RCCIjt6ZIgI7EhZnLY2O-117">
          <mxGeometry x="180" width="90" height="40" as="geometry">
            <mxRectangle width="90" height="40" as="alternateBounds" />
          </mxGeometry>
        </mxCell>
        <mxCell id="RCCIjt6ZIgI7EhZnLY2O-121" value="" style="shape=tableRow;horizontal=0;startSize=0;swimlaneHead=0;swimlaneBody=0;strokeColor=inherit;top=0;left=0;bottom=0;right=0;collapsible=0;dropTarget=0;fillColor=none;points=[[0,0.5],[1,0.5]];portConstraint=eastwest;" vertex="1" parent="RCCIjt6ZIgI7EhZnLY2O-108">
          <mxGeometry y="150" width="270" height="40" as="geometry" />
        </mxCell>
        <mxCell id="RCCIjt6ZIgI7EhZnLY2O-122" value="2" style="shape=partialRectangle;html=1;whiteSpace=wrap;connectable=0;strokeColor=inherit;overflow=hidden;fillColor=none;top=0;left=0;bottom=0;right=0;pointerEvents=1;" vertex="1" parent="RCCIjt6ZIgI7EhZnLY2O-121">
          <mxGeometry width="90" height="40" as="geometry">
            <mxRectangle width="90" height="40" as="alternateBounds" />
          </mxGeometry>
        </mxCell>
        <mxCell id="RCCIjt6ZIgI7EhZnLY2O-123" value="&lt;b&gt;2&lt;/b&gt;" style="shape=partialRectangle;html=1;whiteSpace=wrap;connectable=0;strokeColor=inherit;overflow=hidden;fillColor=none;top=0;left=0;bottom=0;right=0;pointerEvents=1;" vertex="1" parent="RCCIjt6ZIgI7EhZnLY2O-121">
          <mxGeometry x="90" width="90" height="40" as="geometry">
            <mxRectangle width="90" height="40" as="alternateBounds" />
          </mxGeometry>
        </mxCell>
        <mxCell id="RCCIjt6ZIgI7EhZnLY2O-124" value="active" style="shape=partialRectangle;html=1;whiteSpace=wrap;connectable=0;strokeColor=inherit;overflow=hidden;fillColor=none;top=0;left=0;bottom=0;right=0;pointerEvents=1;" vertex="1" parent="RCCIjt6ZIgI7EhZnLY2O-121">
          <mxGeometry x="180" width="90" height="40" as="geometry">
            <mxRectangle width="90" height="40" as="alternateBounds" />
          </mxGeometry>
        </mxCell>
        <mxCell id="RCCIjt6ZIgI7EhZnLY2O-127" style="edgeStyle=orthogonalEdgeStyle;rounded=0;orthogonalLoop=1;jettySize=auto;html=1;" edge="1" parent="1">
          <mxGeometry relative="1" as="geometry">
            <mxPoint x="720" y="3630" as="sourcePoint" />
            <mxPoint x="718" y="3510" as="targetPoint" />
            <Array as="points">
              <mxPoint x="720" y="3520" />
              <mxPoint x="718" y="3520" />
            </Array>
          </mxGeometry>
        </mxCell>
        <mxCell id="RCCIjt6ZIgI7EhZnLY2O-125" value="revoke this one in VDR" style="text;html=1;align=center;verticalAlign=middle;resizable=0;points=[];autosize=1;strokeColor=none;fillColor=none;" vertex="1" parent="1">
          <mxGeometry x="644.5" y="3630" width="150" height="30" as="geometry" />
        </mxCell>
        <mxCell id="RCCIjt6ZIgI7EhZnLY2O-126" value="create a new one" style="text;html=1;align=center;verticalAlign=middle;resizable=0;points=[];autosize=1;strokeColor=none;fillColor=none;" vertex="1" parent="1">
          <mxGeometry x="720" y="3590" width="120" height="30" as="geometry" />
        </mxCell>
        <mxCell id="RCCIjt6ZIgI7EhZnLY2O-128" value="" style="endArrow=classic;html=1;rounded=0;exitX=0.417;exitY=0;exitDx=0;exitDy=0;exitPerimeter=0;" edge="1" parent="1" source="RCCIjt6ZIgI7EhZnLY2O-126">
          <mxGeometry width="50" height="50" relative="1" as="geometry">
            <mxPoint x="330" y="3500" as="sourcePoint" />
            <mxPoint x="770" y="3550" as="targetPoint" />
          </mxGeometry>
        </mxCell>
        <mxCell id="RCCIjt6ZIgI7EhZnLY2O-129" value="&lt;b&gt;Case 2.1:&lt;/b&gt; Alice does NOT remember her Secret (&lt;b&gt;48294&lt;/b&gt;)&lt;br&gt;and still tries to register" style="text;html=1;align=center;verticalAlign=middle;resizable=0;points=[];autosize=1;strokeColor=none;fillColor=none;" vertex="1" parent="1">
          <mxGeometry x="191.87" y="3695" width="320" height="40" as="geometry" />
        </mxCell>
        <mxCell id="RCCIjt6ZIgI7EhZnLY2O-130" value="x1" style="text;html=1;align=center;verticalAlign=middle;resizable=0;points=[];autosize=1;strokeColor=none;fillColor=none;" vertex="1" parent="1">
          <mxGeometry x="291.87" y="3300" width="40" height="30" as="geometry" />
        </mxCell>
        <mxCell id="RCCIjt6ZIgI7EhZnLY2O-132" value="Have you ever been discriminated against?" style="ellipse;shape=cloud;whiteSpace=wrap;html=1;" vertex="1" parent="1">
          <mxGeometry x="281.87" y="3750" width="180" height="130" as="geometry" />
        </mxCell>
        <mxCell id="RCCIjt6ZIgI7EhZnLY2O-133" value="REGISTER" style="rounded=0;whiteSpace=wrap;html=1;" vertex="1" parent="1">
          <mxGeometry x="329.37" y="3840" width="85" height="40" as="geometry" />
        </mxCell>
        <mxCell id="RCCIjt6ZIgI7EhZnLY2O-134" value="" style="shape=partialRectangle;html=1;whiteSpace=wrap;connectable=0;strokeColor=inherit;overflow=hidden;fillColor=none;top=0;left=0;bottom=0;right=0;pointerEvents=1;fontSize=16;" vertex="1" parent="1">
          <mxGeometry x="549.87" y="3878" width="93" height="55" as="geometry">
            <mxRectangle width="93" height="55" as="alternateBounds" />
          </mxGeometry>
        </mxCell>
        <mxCell id="RCCIjt6ZIgI7EhZnLY2O-135" value="Vote Proposal Table" style="shape=table;startSize=30;container=1;collapsible=0;childLayout=tableLayout;" vertex="1" parent="1">
          <mxGeometry x="456.87" y="3770" width="240" height="110" as="geometry" />
        </mxCell>
        <mxCell id="RCCIjt6ZIgI7EhZnLY2O-136" value="" style="shape=tableRow;horizontal=0;startSize=0;swimlaneHead=0;swimlaneBody=0;strokeColor=inherit;top=0;left=0;bottom=0;right=0;collapsible=0;dropTarget=0;fillColor=none;points=[[0,0.5],[1,0.5]];portConstraint=eastwest;" vertex="1" parent="RCCIjt6ZIgI7EhZnLY2O-135">
          <mxGeometry y="30" width="240" height="40" as="geometry" />
        </mxCell>
        <mxCell id="RCCIjt6ZIgI7EhZnLY2O-137" value="proposal id" style="shape=partialRectangle;html=1;whiteSpace=wrap;connectable=0;strokeColor=inherit;overflow=hidden;fillColor=none;top=0;left=0;bottom=0;right=0;pointerEvents=1;" vertex="1" parent="RCCIjt6ZIgI7EhZnLY2O-136">
          <mxGeometry width="60" height="40" as="geometry">
            <mxRectangle width="60" height="40" as="alternateBounds" />
          </mxGeometry>
        </mxCell>
        <mxCell id="RCCIjt6ZIgI7EhZnLY2O-138" value="question" style="shape=partialRectangle;html=1;whiteSpace=wrap;connectable=0;strokeColor=inherit;overflow=hidden;fillColor=none;top=0;left=0;bottom=0;right=0;pointerEvents=1;" vertex="1" parent="RCCIjt6ZIgI7EhZnLY2O-136">
          <mxGeometry x="60" width="60" height="40" as="geometry">
            <mxRectangle width="60" height="40" as="alternateBounds" />
          </mxGeometry>
        </mxCell>
        <mxCell id="RCCIjt6ZIgI7EhZnLY2O-139" value="nonce iss" style="shape=partialRectangle;html=1;whiteSpace=wrap;connectable=0;strokeColor=inherit;overflow=hidden;fillColor=none;top=0;left=0;bottom=0;right=0;pointerEvents=1;" vertex="1" parent="RCCIjt6ZIgI7EhZnLY2O-136">
          <mxGeometry x="120" width="60" height="40" as="geometry">
            <mxRectangle width="60" height="40" as="alternateBounds" />
          </mxGeometry>
        </mxCell>
        <mxCell id="RCCIjt6ZIgI7EhZnLY2O-140" value="nonce vote" style="shape=partialRectangle;html=1;whiteSpace=wrap;connectable=0;strokeColor=inherit;overflow=hidden;fillColor=none;top=0;left=0;bottom=0;right=0;pointerEvents=1;" vertex="1" parent="RCCIjt6ZIgI7EhZnLY2O-136">
          <mxGeometry x="180" width="60" height="40" as="geometry">
            <mxRectangle width="60" height="40" as="alternateBounds" />
          </mxGeometry>
        </mxCell>
        <mxCell id="RCCIjt6ZIgI7EhZnLY2O-141" value="" style="shape=tableRow;horizontal=0;startSize=0;swimlaneHead=0;swimlaneBody=0;strokeColor=inherit;top=0;left=0;bottom=0;right=0;collapsible=0;dropTarget=0;fillColor=none;points=[[0,0.5],[1,0.5]];portConstraint=eastwest;" vertex="1" parent="RCCIjt6ZIgI7EhZnLY2O-135">
          <mxGeometry y="70" width="240" height="40" as="geometry" />
        </mxCell>
        <mxCell id="RCCIjt6ZIgI7EhZnLY2O-142" value="1" style="shape=partialRectangle;html=1;whiteSpace=wrap;connectable=0;strokeColor=inherit;overflow=hidden;fillColor=none;top=0;left=0;bottom=0;right=0;pointerEvents=1;" vertex="1" parent="RCCIjt6ZIgI7EhZnLY2O-141">
          <mxGeometry width="60" height="40" as="geometry">
            <mxRectangle width="60" height="40" as="alternateBounds" />
          </mxGeometry>
        </mxCell>
        <mxCell id="RCCIjt6ZIgI7EhZnLY2O-143" value="Have you ever..." style="shape=partialRectangle;html=1;whiteSpace=wrap;connectable=0;strokeColor=inherit;overflow=hidden;fillColor=none;top=0;left=0;bottom=0;right=0;pointerEvents=1;" vertex="1" parent="RCCIjt6ZIgI7EhZnLY2O-141">
          <mxGeometry x="60" width="60" height="40" as="geometry">
            <mxRectangle width="60" height="40" as="alternateBounds" />
          </mxGeometry>
        </mxCell>
        <mxCell id="RCCIjt6ZIgI7EhZnLY2O-144" value="5" style="shape=partialRectangle;html=1;whiteSpace=wrap;connectable=0;strokeColor=inherit;overflow=hidden;fillColor=none;top=0;left=0;bottom=0;right=0;pointerEvents=1;" vertex="1" parent="RCCIjt6ZIgI7EhZnLY2O-141">
          <mxGeometry x="120" width="60" height="40" as="geometry">
            <mxRectangle width="60" height="40" as="alternateBounds" />
          </mxGeometry>
        </mxCell>
        <mxCell id="RCCIjt6ZIgI7EhZnLY2O-145" value="3" style="shape=partialRectangle;html=1;whiteSpace=wrap;connectable=0;strokeColor=inherit;overflow=hidden;fillColor=none;top=0;left=0;bottom=0;right=0;pointerEvents=1;" vertex="1" parent="RCCIjt6ZIgI7EhZnLY2O-141">
          <mxGeometry x="180" width="60" height="40" as="geometry">
            <mxRectangle width="60" height="40" as="alternateBounds" />
          </mxGeometry>
        </mxCell>
        <mxCell id="RCCIjt6ZIgI7EhZnLY2O-146" value="Alice (Holder)" style="shape=umlActor;verticalLabelPosition=bottom;verticalAlign=top;html=1;outlineConnect=0;" vertex="1" parent="1">
          <mxGeometry x="-13.130000000000003" y="3800" width="50" height="90" as="geometry" />
        </mxCell>
        <mxCell id="RCCIjt6ZIgI7EhZnLY2O-147" value="&lt;div&gt;issues &lt;br&gt;&lt;/div&gt;&lt;div&gt;onClick&lt;/div&gt;" style="text;html=1;align=center;verticalAlign=middle;resizable=0;points=[];autosize=1;strokeColor=none;fillColor=none;" vertex="1" parent="1">
          <mxGeometry x="271.87" y="3875" width="60" height="40" as="geometry" />
        </mxCell>
        <mxCell id="RCCIjt6ZIgI7EhZnLY2O-148" value="" style="edgeStyle=orthogonalEdgeStyle;rounded=0;orthogonalLoop=1;jettySize=auto;html=1;" edge="1" parent="1" source="RCCIjt6ZIgI7EhZnLY2O-133">
          <mxGeometry relative="1" as="geometry">
            <mxPoint x="329.87" y="3860" as="sourcePoint" />
            <mxPoint x="46.870000000000005" y="3860" as="targetPoint" />
            <Array as="points">
              <mxPoint x="96.87" y="3860" />
              <mxPoint x="96.87" y="3860" />
            </Array>
          </mxGeometry>
        </mxCell>
        <mxCell id="RCCIjt6ZIgI7EhZnLY2O-149" value="Proposal Info AnonCred" style="swimlane;fontStyle=0;childLayout=stackLayout;horizontal=1;startSize=30;horizontalStack=0;resizeParent=1;resizeParentMax=0;resizeLast=0;collapsible=1;marginBottom=0;whiteSpace=wrap;html=1;fillColor=default;" vertex="1" parent="1">
          <mxGeometry x="116.87" y="3755" width="150" height="180" as="geometry" />
        </mxCell>
        <mxCell id="RCCIjt6ZIgI7EhZnLY2O-150" value="Proposal ID: 1" style="text;strokeColor=none;fillColor=default;align=left;verticalAlign=middle;spacingLeft=4;spacingRight=4;overflow=hidden;points=[[0,0.5],[1,0.5]];portConstraint=eastwest;rotatable=0;whiteSpace=wrap;html=1;" vertex="1" parent="RCCIjt6ZIgI7EhZnLY2O-149">
          <mxGeometry y="30" width="150" height="30" as="geometry" />
        </mxCell>
        <mxCell id="RCCIjt6ZIgI7EhZnLY2O-151" value="&lt;div&gt;Nonce ISS: 5&lt;/div&gt;" style="text;strokeColor=none;fillColor=default;align=left;verticalAlign=middle;spacingLeft=4;spacingRight=4;overflow=hidden;points=[[0,0.5],[1,0.5]];portConstraint=eastwest;rotatable=0;whiteSpace=wrap;html=1;" vertex="1" parent="RCCIjt6ZIgI7EhZnLY2O-149">
          <mxGeometry y="60" width="150" height="30" as="geometry" />
        </mxCell>
        <mxCell id="RCCIjt6ZIgI7EhZnLY2O-152" value="Nonce Vote: 3" style="text;strokeColor=none;fillColor=default;align=left;verticalAlign=middle;spacingLeft=4;spacingRight=4;overflow=hidden;points=[[0,0.5],[1,0.5]];portConstraint=eastwest;rotatable=0;whiteSpace=wrap;html=1;" vertex="1" parent="RCCIjt6ZIgI7EhZnLY2O-149">
          <mxGeometry y="90" width="150" height="30" as="geometry" />
        </mxCell>
        <mxCell id="RCCIjt6ZIgI7EhZnLY2O-153" value="Secret (blinded when signing): &lt;b&gt;10394&lt;/b&gt;" style="text;strokeColor=none;fillColor=default;align=left;verticalAlign=middle;spacingLeft=4;spacingRight=4;overflow=hidden;points=[[0,0.5],[1,0.5]];portConstraint=eastwest;rotatable=0;whiteSpace=wrap;html=1;" vertex="1" parent="RCCIjt6ZIgI7EhZnLY2O-149">
          <mxGeometry y="120" width="150" height="30" as="geometry" />
        </mxCell>
        <mxCell id="RCCIjt6ZIgI7EhZnLY2O-154" value="&lt;div&gt;Signature: Privency&lt;/div&gt;" style="text;strokeColor=none;fillColor=default;align=left;verticalAlign=middle;spacingLeft=4;spacingRight=4;overflow=hidden;points=[[0,0.5],[1,0.5]];portConstraint=eastwest;rotatable=0;whiteSpace=wrap;html=1;" vertex="1" parent="RCCIjt6ZIgI7EhZnLY2O-149">
          <mxGeometry y="150" width="150" height="30" as="geometry" />
        </mxCell>
        <mxCell id="RCCIjt6ZIgI7EhZnLY2O-155" style="edgeStyle=orthogonalEdgeStyle;rounded=0;orthogonalLoop=1;jettySize=auto;html=1;" edge="1" parent="1" source="RCCIjt6ZIgI7EhZnLY2O-156" target="RCCIjt6ZIgI7EhZnLY2O-157">
          <mxGeometry relative="1" as="geometry" />
        </mxCell>
        <mxCell id="RCCIjt6ZIgI7EhZnLY2O-156" value="Alice (Holder)" style="shape=umlActor;verticalLabelPosition=bottom;verticalAlign=top;html=1;outlineConnect=0;" vertex="1" parent="1">
          <mxGeometry x="-20" y="4007" width="50" height="90" as="geometry" />
        </mxCell>
        <mxCell id="RCCIjt6ZIgI7EhZnLY2O-157" value="Privency (Verifier)" style="shape=umlActor;verticalLabelPosition=bottom;verticalAlign=top;html=1;outlineConnect=0;" vertex="1" parent="1">
          <mxGeometry x="357.5" y="4007" width="50" height="90" as="geometry" />
        </mxCell>
        <mxCell id="RCCIjt6ZIgI7EhZnLY2O-158" value="presents" style="text;html=1;align=center;verticalAlign=middle;resizable=0;points=[];autosize=1;strokeColor=none;fillColor=none;" vertex="1" parent="1">
          <mxGeometry x="22.5" y="4055" width="70" height="30" as="geometry" />
        </mxCell>
        <mxCell id="RCCIjt6ZIgI7EhZnLY2O-159" value="Proposal Hash Presentation" style="swimlane;fontStyle=0;childLayout=stackLayout;horizontal=1;startSize=30;horizontalStack=0;resizeParent=1;resizeParentMax=0;resizeLast=0;collapsible=1;marginBottom=0;whiteSpace=wrap;html=1;fillColor=default;" vertex="1" parent="1">
          <mxGeometry x="92.5" y="3980" width="200" height="210" as="geometry" />
        </mxCell>
        <mxCell id="RCCIjt6ZIgI7EhZnLY2O-160" value="Proposal ID: 1" style="text;strokeColor=none;fillColor=default;align=left;verticalAlign=middle;spacingLeft=4;spacingRight=4;overflow=hidden;points=[[0,0.5],[1,0.5]];portConstraint=eastwest;rotatable=0;whiteSpace=wrap;html=1;" vertex="1" parent="RCCIjt6ZIgI7EhZnLY2O-159">
          <mxGeometry y="30" width="200" height="30" as="geometry" />
        </mxCell>
        <mxCell id="RCCIjt6ZIgI7EhZnLY2O-161" value="&lt;div&gt;Hash_Secret (Secret + Nonce &lt;b&gt;ISS&lt;/b&gt;): hash(48294+5)=&lt;b&gt;40dkd&lt;/b&gt;&lt;/div&gt;" style="text;strokeColor=none;fillColor=default;align=left;verticalAlign=middle;spacingLeft=4;spacingRight=4;overflow=hidden;points=[[0,0.5],[1,0.5]];portConstraint=eastwest;rotatable=0;whiteSpace=wrap;html=1;" vertex="1" parent="RCCIjt6ZIgI7EhZnLY2O-159">
          <mxGeometry y="60" width="200" height="50" as="geometry" />
        </mxCell>
        <mxCell id="RCCIjt6ZIgI7EhZnLY2O-162" value="Hash_ID (ACME Unique ID + Nonce ISS): hash(121A+5)=&lt;b&gt;bskjdf98&lt;/b&gt;" style="text;strokeColor=none;fillColor=default;align=left;verticalAlign=middle;spacingLeft=4;spacingRight=4;overflow=hidden;points=[[0,0.5],[1,0.5]];portConstraint=eastwest;rotatable=0;whiteSpace=wrap;html=1;" vertex="1" parent="RCCIjt6ZIgI7EhZnLY2O-159">
          <mxGeometry y="110" width="200" height="50" as="geometry" />
        </mxCell>
        <mxCell id="RCCIjt6ZIgI7EhZnLY2O-163" value="&lt;div&gt;Proofs, non revocation&lt;br&gt;&lt;/div&gt;" style="text;strokeColor=none;fillColor=default;align=left;verticalAlign=middle;spacingLeft=4;spacingRight=4;overflow=hidden;points=[[0,0.5],[1,0.5]];portConstraint=eastwest;rotatable=0;whiteSpace=wrap;html=1;" vertex="1" parent="RCCIjt6ZIgI7EhZnLY2O-159">
          <mxGeometry y="160" width="200" height="50" as="geometry" />
        </mxCell>
        <mxCell id="RCCIjt6ZIgI7EhZnLY2O-181" style="edgeStyle=orthogonalEdgeStyle;rounded=0;orthogonalLoop=1;jettySize=auto;html=1;exitX=0.503;exitY=0.033;exitDx=0;exitDy=0;exitPerimeter=0;" edge="1" parent="1" source="RCCIjt6ZIgI7EhZnLY2O-164">
          <mxGeometry relative="1" as="geometry">
            <mxPoint x="490" y="4210" as="sourcePoint" />
            <mxPoint x="630" y="4120" as="targetPoint" />
            <Array as="points" />
          </mxGeometry>
        </mxCell>
        <mxCell id="RCCIjt6ZIgI7EhZnLY2O-165" value="Proposal Hash Table" style="shape=table;startSize=30;container=1;collapsible=0;childLayout=tableLayout;" vertex="1" parent="1">
          <mxGeometry x="480" y="3980" width="240" height="150" as="geometry" />
        </mxCell>
        <mxCell id="RCCIjt6ZIgI7EhZnLY2O-166" value="" style="shape=tableRow;horizontal=0;startSize=0;swimlaneHead=0;swimlaneBody=0;strokeColor=inherit;top=0;left=0;bottom=0;right=0;collapsible=0;dropTarget=0;fillColor=none;points=[[0,0.5],[1,0.5]];portConstraint=eastwest;" vertex="1" parent="RCCIjt6ZIgI7EhZnLY2O-165">
          <mxGeometry y="30" width="240" height="40" as="geometry" />
        </mxCell>
        <mxCell id="RCCIjt6ZIgI7EhZnLY2O-167" value="proposal id" style="shape=partialRectangle;html=1;whiteSpace=wrap;connectable=0;strokeColor=inherit;overflow=hidden;fillColor=none;top=0;left=0;bottom=0;right=0;pointerEvents=1;" vertex="1" parent="RCCIjt6ZIgI7EhZnLY2O-166">
          <mxGeometry width="60" height="40" as="geometry">
            <mxRectangle width="60" height="40" as="alternateBounds" />
          </mxGeometry>
        </mxCell>
        <mxCell id="RCCIjt6ZIgI7EhZnLY2O-168" value="user id" style="shape=partialRectangle;html=1;whiteSpace=wrap;connectable=0;strokeColor=inherit;overflow=hidden;fillColor=none;top=0;left=0;bottom=0;right=0;pointerEvents=1;" vertex="1" parent="RCCIjt6ZIgI7EhZnLY2O-166">
          <mxGeometry x="60" width="60" height="40" as="geometry">
            <mxRectangle width="60" height="40" as="alternateBounds" />
          </mxGeometry>
        </mxCell>
        <mxCell id="RCCIjt6ZIgI7EhZnLY2O-169" value="hash secret" style="shape=partialRectangle;html=1;whiteSpace=wrap;connectable=0;strokeColor=inherit;overflow=hidden;fillColor=none;top=0;left=0;bottom=0;right=0;pointerEvents=1;" vertex="1" parent="RCCIjt6ZIgI7EhZnLY2O-166">
          <mxGeometry x="120" width="60" height="40" as="geometry">
            <mxRectangle width="60" height="40" as="alternateBounds" />
          </mxGeometry>
        </mxCell>
        <mxCell id="RCCIjt6ZIgI7EhZnLY2O-170" value="hash id" style="shape=partialRectangle;html=1;whiteSpace=wrap;connectable=0;strokeColor=inherit;overflow=hidden;fillColor=none;top=0;left=0;bottom=0;right=0;pointerEvents=1;" vertex="1" parent="RCCIjt6ZIgI7EhZnLY2O-166">
          <mxGeometry x="180" width="60" height="40" as="geometry">
            <mxRectangle width="60" height="40" as="alternateBounds" />
          </mxGeometry>
        </mxCell>
        <mxCell id="RCCIjt6ZIgI7EhZnLY2O-171" value="" style="shape=tableRow;horizontal=0;startSize=0;swimlaneHead=0;swimlaneBody=0;strokeColor=inherit;top=0;left=0;bottom=0;right=0;collapsible=0;dropTarget=0;fillColor=none;points=[[0,0.5],[1,0.5]];portConstraint=eastwest;" vertex="1" parent="RCCIjt6ZIgI7EhZnLY2O-165">
          <mxGeometry y="70" width="240" height="40" as="geometry" />
        </mxCell>
        <mxCell id="RCCIjt6ZIgI7EhZnLY2O-172" value="1" style="shape=partialRectangle;html=1;whiteSpace=wrap;connectable=0;strokeColor=inherit;overflow=hidden;fillColor=none;top=0;left=0;bottom=0;right=0;pointerEvents=1;" vertex="1" parent="RCCIjt6ZIgI7EhZnLY2O-171">
          <mxGeometry width="60" height="40" as="geometry">
            <mxRectangle width="60" height="40" as="alternateBounds" />
          </mxGeometry>
        </mxCell>
        <mxCell id="RCCIjt6ZIgI7EhZnLY2O-173" value="1" style="shape=partialRectangle;html=1;whiteSpace=wrap;connectable=0;strokeColor=inherit;overflow=hidden;fillColor=none;top=0;left=0;bottom=0;right=0;pointerEvents=1;" vertex="1" parent="RCCIjt6ZIgI7EhZnLY2O-171">
          <mxGeometry x="60" width="60" height="40" as="geometry">
            <mxRectangle width="60" height="40" as="alternateBounds" />
          </mxGeometry>
        </mxCell>
        <mxCell id="RCCIjt6ZIgI7EhZnLY2O-174" value="dslfj3" style="shape=partialRectangle;html=1;whiteSpace=wrap;connectable=0;strokeColor=inherit;overflow=hidden;fillColor=none;top=0;left=0;bottom=0;right=0;pointerEvents=1;" vertex="1" parent="RCCIjt6ZIgI7EhZnLY2O-171">
          <mxGeometry x="120" width="60" height="40" as="geometry">
            <mxRectangle width="60" height="40" as="alternateBounds" />
          </mxGeometry>
        </mxCell>
        <mxCell id="RCCIjt6ZIgI7EhZnLY2O-175" value="93idlkj" style="shape=partialRectangle;html=1;whiteSpace=wrap;connectable=0;strokeColor=inherit;overflow=hidden;fillColor=none;top=0;left=0;bottom=0;right=0;pointerEvents=1;" vertex="1" parent="RCCIjt6ZIgI7EhZnLY2O-171">
          <mxGeometry x="180" width="60" height="40" as="geometry">
            <mxRectangle width="60" height="40" as="alternateBounds" />
          </mxGeometry>
        </mxCell>
        <mxCell id="RCCIjt6ZIgI7EhZnLY2O-176" value="" style="shape=tableRow;horizontal=0;startSize=0;swimlaneHead=0;swimlaneBody=0;strokeColor=inherit;top=0;left=0;bottom=0;right=0;collapsible=0;dropTarget=0;fillColor=none;points=[[0,0.5],[1,0.5]];portConstraint=eastwest;" vertex="1" parent="RCCIjt6ZIgI7EhZnLY2O-165">
          <mxGeometry y="110" width="240" height="40" as="geometry" />
        </mxCell>
        <mxCell id="RCCIjt6ZIgI7EhZnLY2O-177" value="1" style="shape=partialRectangle;html=1;whiteSpace=wrap;connectable=0;strokeColor=inherit;overflow=hidden;fillColor=none;top=0;left=0;bottom=0;right=0;pointerEvents=1;fontStyle=1" vertex="1" parent="RCCIjt6ZIgI7EhZnLY2O-176">
          <mxGeometry width="60" height="40" as="geometry">
            <mxRectangle width="60" height="40" as="alternateBounds" />
          </mxGeometry>
        </mxCell>
        <mxCell id="RCCIjt6ZIgI7EhZnLY2O-178" value="2" style="shape=partialRectangle;html=1;whiteSpace=wrap;connectable=0;strokeColor=inherit;overflow=hidden;fillColor=none;top=0;left=0;bottom=0;right=0;pointerEvents=1;fontStyle=1" vertex="1" parent="RCCIjt6ZIgI7EhZnLY2O-176">
          <mxGeometry x="60" width="60" height="40" as="geometry">
            <mxRectangle width="60" height="40" as="alternateBounds" />
          </mxGeometry>
        </mxCell>
        <mxCell id="RCCIjt6ZIgI7EhZnLY2O-179" value="qzkdf9" style="shape=partialRectangle;html=1;whiteSpace=wrap;connectable=0;strokeColor=inherit;overflow=hidden;fillColor=none;top=0;left=0;bottom=0;right=0;pointerEvents=1;fontStyle=1" vertex="1" parent="RCCIjt6ZIgI7EhZnLY2O-176">
          <mxGeometry x="120" width="60" height="40" as="geometry">
            <mxRectangle width="60" height="40" as="alternateBounds" />
          </mxGeometry>
        </mxCell>
        <mxCell id="RCCIjt6ZIgI7EhZnLY2O-180" value="bskjdf98" style="shape=partialRectangle;html=1;whiteSpace=wrap;connectable=0;strokeColor=inherit;overflow=hidden;fillColor=none;top=0;left=0;bottom=0;right=0;pointerEvents=1;fontStyle=1" vertex="1" parent="RCCIjt6ZIgI7EhZnLY2O-176">
          <mxGeometry x="180" width="60" height="40" as="geometry">
            <mxRectangle width="60" height="40" as="alternateBounds" />
          </mxGeometry>
        </mxCell>
        <mxCell id="RCCIjt6ZIgI7EhZnLY2O-164" value="&lt;div&gt;does not match with &lt;b&gt;40dkd&lt;/b&gt;&lt;/div&gt;" style="text;html=1;align=center;verticalAlign=middle;resizable=0;points=[];autosize=1;strokeColor=none;fillColor=none;" vertex="1" parent="1">
          <mxGeometry x="544.5" y="4160" width="170" height="30" as="geometry" />
        </mxCell>
        <mxCell id="RCCIjt6ZIgI7EhZnLY2O-184" value="Alice (Holder)" style="shape=umlActor;verticalLabelPosition=bottom;verticalAlign=top;html=1;outlineConnect=0;" vertex="1" parent="1">
          <mxGeometry x="-30" y="4237" width="50" height="90" as="geometry" />
        </mxCell>
        <mxCell id="RCCIjt6ZIgI7EhZnLY2O-193" style="edgeStyle=orthogonalEdgeStyle;rounded=0;orthogonalLoop=1;jettySize=auto;html=1;" edge="1" parent="1" source="RCCIjt6ZIgI7EhZnLY2O-185">
          <mxGeometry relative="1" as="geometry">
            <mxPoint x="30" y="4282" as="targetPoint" />
          </mxGeometry>
        </mxCell>
        <mxCell id="RCCIjt6ZIgI7EhZnLY2O-185" value="Privency (Verifier)" style="shape=umlActor;verticalLabelPosition=bottom;verticalAlign=top;html=1;outlineConnect=0;" vertex="1" parent="1">
          <mxGeometry x="347.5" y="4237" width="50" height="90" as="geometry" />
        </mxCell>
        <mxCell id="RCCIjt6ZIgI7EhZnLY2O-187" value="Error Message" style="swimlane;fontStyle=0;childLayout=stackLayout;horizontal=1;startSize=30;horizontalStack=0;resizeParent=1;resizeParentMax=0;resizeLast=0;collapsible=1;marginBottom=0;whiteSpace=wrap;html=1;fillColor=default;" vertex="1" parent="1">
          <mxGeometry x="82.5" y="4210" width="200" height="190" as="geometry" />
        </mxCell>
        <mxCell id="RCCIjt6ZIgI7EhZnLY2O-188" value="Proposal ID: 1" style="text;strokeColor=none;fillColor=default;align=left;verticalAlign=middle;spacingLeft=4;spacingRight=4;overflow=hidden;points=[[0,0.5],[1,0.5]];portConstraint=eastwest;rotatable=0;whiteSpace=wrap;html=1;" vertex="1" parent="RCCIjt6ZIgI7EhZnLY2O-187">
          <mxGeometry y="30" width="200" height="30" as="geometry" />
        </mxCell>
        <mxCell id="RCCIjt6ZIgI7EhZnLY2O-194" value="Error: &quot;Secret does not match&quot;" style="text;strokeColor=none;fillColor=default;align=left;verticalAlign=middle;spacingLeft=4;spacingRight=4;overflow=hidden;points=[[0,0.5],[1,0.5]];portConstraint=eastwest;rotatable=0;whiteSpace=wrap;html=1;" vertex="1" parent="RCCIjt6ZIgI7EhZnLY2O-187">
          <mxGeometry y="60" width="200" height="30" as="geometry" />
        </mxCell>
        <mxCell id="RCCIjt6ZIgI7EhZnLY2O-189" value="&lt;div&gt;Hash_Secret (Secret + Nonce &lt;b&gt;ISS&lt;/b&gt;): hash(48294+5)=&lt;b&gt;40dkd&lt;/b&gt;&lt;/div&gt;" style="text;strokeColor=none;fillColor=default;align=left;verticalAlign=middle;spacingLeft=4;spacingRight=4;overflow=hidden;points=[[0,0.5],[1,0.5]];portConstraint=eastwest;rotatable=0;whiteSpace=wrap;html=1;" vertex="1" parent="RCCIjt6ZIgI7EhZnLY2O-187">
          <mxGeometry y="90" width="200" height="50" as="geometry" />
        </mxCell>
        <mxCell id="RCCIjt6ZIgI7EhZnLY2O-190" value="Hash_ID (ACME Unique ID + Nonce ISS): hash(121A+5)=&lt;b&gt;bskjdf98&lt;/b&gt;" style="text;strokeColor=none;fillColor=default;align=left;verticalAlign=middle;spacingLeft=4;spacingRight=4;overflow=hidden;points=[[0,0.5],[1,0.5]];portConstraint=eastwest;rotatable=0;whiteSpace=wrap;html=1;" vertex="1" parent="RCCIjt6ZIgI7EhZnLY2O-187">
          <mxGeometry y="140" width="200" height="50" as="geometry" />
        </mxCell>
        <mxCell id="RCCIjt6ZIgI7EhZnLY2O-195" value="If Alice loses her Secret &lt;br&gt;after she registered to a proposal, &lt;br&gt;she cannot vote again.&lt;br&gt;This is important to ensure Alice cannot vote twice &lt;br&gt;by revoking her credential and using a new Secret.&amp;nbsp;&lt;br&gt;If we&#39;d allow that, &lt;br&gt;there would be no way &lt;br&gt;to associate Alice&#39;s previous voting identifier &lt;br&gt;with the new one." style="text;html=1;align=center;verticalAlign=middle;resizable=0;points=[];autosize=1;strokeColor=none;fillColor=none;" vertex="1" parent="1">
          <mxGeometry x="440" y="4200" width="300" height="140" as="geometry" />
        </mxCell>
        <mxCell id="OeVJVSpPUuf5zKflXX3D-289" value="anyone having this type of AnonCred can vote" style="text;html=1;align=center;verticalAlign=middle;resizable=0;points=[];autosize=1;strokeColor=none;fillColor=none;" parent="1" vertex="1">
          <mxGeometry x="141.87" y="1210" width="150" height="30" as="geometry" />
        </mxCell>
      </root>
    </mxGraphModel>
  </diagram>
</mxfile>
